<?xml version="1.0" encoding="UTF-8"?><svg id="a" xmlns="http://www.w3.org/2000/svg" viewBox="0 0 360.95784 57.36914"><defs><style>.b{fill:#003778;}.c{fill:#0094ff;}.d{fill:#fff;fill-rule:evenodd;}</style></defs><g><path class="c" d="M97.68622,22.39442V56.37977h-8.71387v-12.63574h-13.85547v12.63574h-8.6709V22.39442h8.6709v13.20215h13.85547v-13.20215h8.71387Z"/><path class="c" d="M124.0036,22.39442l13.72461,33.98535h-9.49902l-1.87305-4.9668h-13.37695l-1.87305,4.9668h-9.49902l13.76855-33.98535h8.62793Zm-4.31445,11.1543l-3.74707,9.97754h7.45116l-3.70409-9.97754Z"/><path class="c" d="M158.2497,22.39442c2.17871,0,4.06641,.32617,5.66504,.97949,1.59668,.6543,2.91895,1.54688,3.96484,2.67969s1.82227,2.45508,2.33105,3.96582c.50781,1.51074,.7627,3.1084,.7627,4.79199,0,1.19141-.13867,2.35352-.41406,3.48633-.27637,1.13281-.69043,2.18555-1.24219,3.15918s-1.24902,1.8584-2.09082,2.65723c-.84277,.7998-1.83008,1.45996-2.96289,1.98242l7.36328,10.2832h-10.41406l-6.44824-9.10645h-4.44434v9.10645h-8.6709V22.39442h16.60059Zm-7.92969,7.92969v9.0625h7.45117c.87109,0,1.6123-.12305,2.22168-.37012,.61035-.24609,1.10352-.57324,1.48145-.98047,.37695-.40625,.65332-.88574,.82812-1.4375,.17383-.55176,.26172-1.11816,.26172-1.69922,0-1.30762-.36426-2.39648-1.08984-3.26855-.72656-.87109-1.96094-1.30664-3.70312-1.30664h-7.45117Z"/><path class="c" d="M176.33173,22.39442h15.77246c2.64355,0,4.97461,.4502,6.99316,1.35059s3.69629,2.12793,5.0332,3.68164c1.33496,1.55371,2.34473,3.3623,3.02734,5.4248s1.02441,4.24121,1.02441,6.53516c0,2.32422-.3418,4.51758-1.02441,6.5791-.68262,2.06348-1.69238,3.86426-3.02734,5.40332-1.33691,1.54004-3.01465,2.75977-5.0332,3.66016s-4.34961,1.35059-6.99316,1.35059h-15.77246V22.39442Zm8.71387,8.45215v17.12402h6.40527c1.30664,0,2.4541-.21094,3.44237-.63184,.98732-.4209,1.81447-1.00879,2.48342-1.76465,.66797-.75488,1.16895-1.65625,1.50293-2.70117,.33398-1.0459,.50098-2.20703,.50098-3.48633,0-2.55566-.66797-4.61816-2.00391-6.18652-1.33691-1.56934-3.31152-2.35352-5.92578-2.35352h-6.40527Z"/><path class="c" d="M219.29267,56.37977l-9.54199-33.98535h9.28027l5.49023,20.26074,6.36133-20.26074h7.75586l6.36133,20.2168,5.49023-20.2168h9.32422l-9.54199,33.98535h-9.01953l-6.49219-19.73828-6.44824,19.73828h-9.01953Z"/><path class="c" d="M279.59638,22.39442l13.72461,33.98535h-9.49902l-1.87305-4.9668h-13.37695l-1.87305,4.9668h-9.49902l13.76855-33.98535h8.62793Zm-4.31445,11.1543l-3.74707,9.97754h7.45117l-3.7041-9.97754Z"/><path class="c" d="M313.84247,22.39442c2.17871,0,4.06641,.32617,5.66504,.97949,1.59668,.6543,2.91895,1.54688,3.96484,2.67969,1.04588,1.13281,1.82227,2.45508,2.33105,3.96582,.50781,1.51074,.7627,3.1084,.7627,4.79199,0,1.19141-.13867,2.35352-.41406,3.48633-.27637,1.13281-.69043,2.18555-1.24219,3.15918s-1.24902,1.8584-2.09082,2.65723c-.84277,.7998-1.83008,1.45996-2.96289,1.98242l7.36328,10.2832h-10.41406l-6.44824-9.10645h-4.44434v9.10645h-8.6709V22.39442h16.60059Zm-7.92969,7.92969v9.0625h7.45117c.87109,0,1.6123-.12305,2.22168-.37012,.61035-.24609,1.10352-.57324,1.48145-.98047,.37695-.40625,.65332-.88574,.82812-1.4375,.17383-.55176,.26172-1.11816,.26172-1.69922,0-1.30762-.36426-2.39648-1.08984-3.26855-.72656-.87109-1.96094-1.30664-3.70312-1.30664h-7.45117Z"/><path class="c" d="M331.9245,22.39442h26.09961v8.45215h-17.38574v4.87988h14.29199v7.88672h-14.29199v4.35742h17.38574v8.40918h-26.09961V22.39442Z"/></g><g><path class="b" d="M74.70319,15.50879c-.96436,0-1.86426-.07129-2.69971-.21387-.83594-.14258-1.56934-.38672-2.20117-.7334s-1.12793-.82812-1.4873-1.44727c-.36035-.61719-.54004-1.39551-.54004-2.33301v-.1123c0-.04688,.00635-.09766,.02002-.15234h4.25928c-.01367,.05469-.02051,.10547-.02051,.15234v.13281c0,.40723,.09521,.7207,.28516,.9375,.19043,.21777,.4585,.36328,.80518,.43848,.34619,.07422,.73682,.11133,1.17188,.11133,.16309,0,.33594-.00293,.51953-.00977s.35986-.02734,.52979-.06152c.16992-.0332,.32617-.08398,.46875-.15234s.25488-.16016,.33643-.27539,.12207-.26172,.12207-.43848c0-.25781-.11572-.46094-.34619-.61133-.23145-.14844-.54395-.27832-.9375-.38672-.39453-.1084-.83545-.21094-1.32471-.30566s-.99854-.20703-1.52832-.33594-1.03955-.2959-1.52832-.5c-.48926-.20312-.93066-.46484-1.32471-.78418s-.70654-.71973-.9375-1.20215-.34619-1.06348-.34619-1.74219c0-.81543,.16943-1.50879,.50928-2.0791,.33936-.57031,.80518-1.03223,1.396-1.38574,.59082-.35254,1.26318-.61133,2.01758-.77441,.75391-.16309,1.54492-.24414,2.37402-.24414,.84229,0,1.6333,.08496,2.37402,.25488,.74023,.16992,1.396,.43066,1.96631,.78418,.5708,.35352,1.01904,.80176,1.34521,1.34473,.32617,.54395,.49561,1.18945,.50928,1.93652v.24414h-4.21826v-.08105c0-.24512-.06104-.47559-.18359-.69336-.12207-.2168-.31543-.39355-.58057-.5293s-.61475-.2041-1.04932-.2041c-.40771,0-.75098,.04102-1.0293,.12207-.27881,.08203-.48584,.19336-.62158,.33594-.13574,.14355-.20361,.2959-.20361,.45898,0,.25781,.11523,.46875,.34619,.63184s.54346,.29883,.9375,.40723c.39404,.10938,.83545,.21094,1.32471,.30566,.48877,.0957,.99854,.20117,1.52832,.31641s1.03906,.26855,1.52832,.45801c.48926,.19043,.93018,.43848,1.32471,.74414,.39355,.30566,.70605,.68262,.9375,1.13086,.23047,.44824,.34619,.99805,.34619,1.65039,0,1.15527-.26855,2.09277-.80469,2.8125-.53711,.71973-1.27051,1.24609-2.20117,1.5791s-1.98682,.49902-3.16895,.49902Z"/><path class="b" d="M84.74957,15.26465V1.24414h8.27393c.88281,0,1.66064,.20117,2.33301,.60156,.67285,.40039,1.19921,.9541,1.57959,1.66113,.37988,.70605,.57031,1.52832,.57031,2.46484,0,.96484-.19336,1.80371-.58057,2.51758-.38721,.71289-.91699,1.2666-1.58936,1.66016-.67285,.39453-1.44385,.59082-2.31299,.59082h-3.77002v4.52441h-4.50391Zm4.50391-7.80469h2.26172c.47559,0,.83203-.12207,1.06982-.36719,.23779-.24414,.35693-.60449,.35693-1.08008,0-.32617-.05127-.59375-.15283-.80469-.10205-.21094-.2583-.37012-.46875-.47852-.21094-.10938-.479-.16309-.80518-.16309h-2.26172v2.89355Z"/><path class="b" d="M101.09235,15.26465V1.24414h6.07275c1.60303,0,2.94824,.25195,4.03516,.75391,1.08643,.50293,1.91211,1.27051,2.47607,2.30273,.56348,1.0332,.8457,2.35059,.8457,3.9541,0,1.58887-.28223,2.90332-.8457,3.94238-.56396,1.04004-1.38965,1.81055-2.47607,2.31348-1.08691,.50293-2.43213,.75391-4.03516,.75391h-6.07275Zm4.50391-3.3623h1.4873c.48926,0,.91357-.06836,1.27393-.2041,.35986-.13574,.65527-.33301,.88623-.59082s.40088-.57715,.50977-.95801c.1084-.37988,.16309-.80762,.16309-1.2832v-1.22266c0-.47559-.05469-.90332-.16309-1.28418-.10889-.37988-.27881-.69922-.50977-.95801-.23096-.25781-.52637-.45508-.88623-.59082-.36035-.13574-.78467-.2041-1.27393-.2041h-1.4873v7.2959Z"/><path class="b" d="M116.53961,15.26465l5.01318-7.41797-4.52393-6.60254h5.44092l2.11914,3.58691h.08154l2.13965-3.58691h5.03369l-4.54443,6.62305,5.01318,7.39746h-5.46143l-2.58838-4.36133h-.08105l-2.58838,4.36133h-5.05371Z"/></g><polygon class="b" points="56.11527 1.63413 56.11527 1.11777 -.52774 1.11777 -.52774 57.76077 -.01144 57.76077 56.11527 1.63413"/><polygon class="c" points=".065 56.19968 .065 56.71604 56.70801 56.71604 56.70801 .07303 56.19171 .07303 .065 56.19968"/><path class="d" d="M14.90136,15.19973h4.34373v-5.66159c0-.35249,.28566-.63814,.63814-.63814s.63814,.28566,.63814,.63814v5.66159h4.39208v-5.66159c0-.35249,.28566-.63814,.63814-.63814s.63814,.28566,.63814,.63814v5.66159h4.39208l-.00013-5.66159c0-.35249,.28566-.63814,.63814-.63814s.63814,.28566,.63814,.63814v5.66227h4.39275v-5.66227c0-.35249,.28566-.63814,.63814-.63814s.63814,.28566,.63814,.63814v5.66227h4.34306v4.34306h5.66227c.35249,0,.63814,.28566,.63814,.63814s-.28566,.63814-.63814,.63814h-5.66159v4.39208h5.66227c.35249,0,.63814,.28566,.63814,.63814s-.28566,.63814-.63814,.63814h-5.66227v4.39208h5.66227c.35249,0,.63814,.28566,.63814,.63814s-.28566,.63814-.63814,.63814l-5.66227-.00013v4.39275h5.66227c.35249,0,.63814,.28566,.63814,.63814s-.28566,.63814-.63814,.63814h-5.66227v4.34306h-4.34373v5.66159c0,.35249-.28566,.63814-.63814,.63814s-.63814-.28566-.63814-.63814v-5.66125h-4.39208v5.66159c0,.35249-.28566,.63814-.63814,.63814s-.63814-.28566-.63814-.63814v-5.66159h-4.39241v5.66227c0,.35249-.28566,.63814-.63814,.63814s-.63814-.28566-.63814-.63814v-5.66227h-4.39208v5.66227c0,.35249-.28566,.63814-.63814,.63814s-.63814-.28566-.63814-.63814v-5.66227h-.71248l-3.63104-3.63105-.00013-.71262h-5.66159c-.35249,0-.63814-.28566-.63814-.63814s.28566-.63814,.63814-.63814h5.66159v-4.39208h-5.66159c-.35249,0-.63814-.28566-.63814-.63814s.28566-.63814,.63814-.63814h5.66159v-4.39241h-5.66159c-.35249,0-.63814-.28566-.63814-.63814s.28566-.63814,.63814-.63814h5.66227v-4.39208h-5.66227c-.35249,0-.63814-.28566-.63814-.63814s.28566-.63814,.63814-.63814h5.66227v-4.34373l-.00096,.00006Zm3.47012,3.47012v18.43043l1.59823,1.59823h18.43043V18.66995l-20.02866-.0001Zm-1.27628,18.69481c0,.17789,.07263,.33886,.19017,.45469l1.96857,1.96857c.12467,.12467,.28777,.18674,.45141,.18674h19.33312c.35249,0,.63814-.28566,.63814-.63814l-.00013-21.30483c0-.35249-.28566-.63814-.63814-.63814H17.73351c-.35249,0-.63814,.28566-.63814,.63814l-.00017,19.33297Z"/></svg>