<?xml version="1.0" encoding="UTF-8"?><svg id="a" xmlns="http://www.w3.org/2000/svg" viewBox="0 0 265.06513 57.36914"><defs><style>.b{fill:#003778;}.c{fill:#0094ff;}.d{fill:#fff;}</style></defs><g><path class="c" d="M77.53485,46.52051v.21777c0,.31934,.11621,.66113,.34863,1.02344,.23242,.36328,.58105,.69727,1.0459,1.00195,.46387,.30566,1.05957,.55957,1.78613,.7627,.72559,.2041,1.58301,.30469,2.57031,.30469,1.62695,0,2.75195-.22461,3.37695-.6748s.9375-.92188,.9375-1.41602c0-.72559-.45117-1.35059-1.35156-1.87402-.90039-.52246-2.38184-1.13281-4.44336-1.83008-1.36621-.43555-2.78223-.95117-4.24902-1.54688-1.4668-.59473-2.80957-1.32812-4.03027-2.2002-1.21973-.87109-2.22949-1.93066-3.02832-3.18066-.79883-1.24805-1.19824-2.74512-1.19824-4.4873,0-1.62695,.32715-3.08594,.98047-4.37891,.6543-1.29297,1.56836-2.39648,2.74512-3.31152s2.57812-1.61914,4.20508-2.11328c1.62598-.49414,3.41211-.74121,5.35938-.74121,1.97461,0,3.8125,.25488,5.51172,.7627,1.69922,.50879,3.16504,1.24219,4.40039,2.2002,1.23438,.95898,2.20703,2.11328,2.91895,3.46387s1.06836,2.86914,1.06836,4.55371v.47949h-8.49707v-.30566c0-.40625-.1084-.82715-.32617-1.26367-.21875-.43555-.54492-.82715-.98047-1.17578-.43652-.34863-.98047-.63184-1.63477-.84961-.65332-.21777-1.41602-.32715-2.28711-.32715-1.48145,0-2.54199,.23926-3.18066,.71875-.63965,.47949-.95898,1.00977-.95898,1.59082,0,.66797,.42871,1.23438,1.28613,1.69922,.85645,.46484,2.30174,1.0459,4.33496,1.74316,1.16113,.40625,2.4834,.9082,3.96484,1.50293,1.48145,.5957,2.86816,1.35059,4.16113,2.26562,1.29199,.91504,2.38184,2.0332,3.26758,3.35449,.88574,1.32227,1.3291,2.91309,1.3291,4.77148,0,1.65625-.3418,3.11523-1.02344,4.37891-.68262,1.26367-1.62695,2.31641-2.83203,3.15918-1.20605,.84277-2.62988,1.48145-4.27051,1.91699-1.6416,.43555-3.43555,.65332-5.38086,.65332-2.0332,0-3.92871-.23242-5.68652-.69727-1.75781-.46387-3.28223-1.13965-4.57422-2.02539-1.29297-.88574-2.30957-1.98242-3.05078-3.29004-.74023-1.30664-1.11035-2.78809-1.11035-4.44434v-.3916h8.49609Z"/><path class="c" d="M120.32196,22.73047l13.72461,33.98535h-9.49805l-1.87402-4.9668h-13.37598l-1.87402,4.9668h-9.49805l13.76855-33.98535h8.62695Zm-4.31348,11.1543l-3.74707,9.97754h7.45018l-3.70311-9.97754Z"/><path class="c" d="M137.96845,22.73047h25.22754v8.45215h-16.55664v6.0127h13.89941v7.88672h-13.89941v11.63379h-8.6709V22.73047Z"/><path class="c" d="M168.2497,22.73047h26.09961v8.45215h-17.38477v4.87988h14.29102v7.88672h-14.29102v4.35742h17.38477v8.40918h-26.09961V22.73047Z"/><path class="c" d="M197.79071,22.73047h29.89062v8.45215h-10.58789v25.5332h-8.71484V31.18262h-10.58789v-8.45215Z"/><path class="c" d="M247.24384,35.06055l7.53809-12.33008h10.2832l-13.46387,21.52344v12.46191h-8.6709v-12.46191l-13.41992-21.52344h10.23926l7.49414,12.33008Z"/></g><g><g><path class="b" d="M74.70319,14.50879c-.96436,0-1.86426-.07129-2.69971-.21387-.83594-.14258-1.56934-.38672-2.20117-.7334s-1.12793-.82812-1.4873-1.44727c-.36035-.61719-.54004-1.39551-.54004-2.33301v-.1123c0-.04688,.00635-.09766,.02002-.15234h4.25928c-.01367,.05469-.02051,.10547-.02051,.15234v.13281c0,.40723,.09521,.7207,.28516,.9375,.19043,.21777,.4585,.36328,.80518,.43848,.34619,.07422,.73682,.11133,1.17188,.11133,.16309,0,.33594-.00293,.51953-.00977s.35986-.02734,.52979-.06152c.16992-.0332,.32617-.08398,.46875-.15234s.25488-.16016,.33643-.27539,.12207-.26172,.12207-.43848c0-.25781-.11572-.46094-.34619-.61133-.23145-.14844-.54395-.27832-.9375-.38672-.39453-.1084-.83545-.21094-1.32471-.30566s-.99854-.20703-1.52832-.33594-1.03955-.2959-1.52832-.5c-.48926-.20312-.93066-.46484-1.32471-.78418s-.70654-.71973-.9375-1.20215-.34619-1.06348-.34619-1.74219c0-.81543,.16943-1.50879,.50928-2.0791,.33936-.57031,.80518-1.03223,1.396-1.38574,.59082-.35254,1.26318-.61133,2.01758-.77441,.75391-.16309,1.54492-.24414,2.37402-.24414,.84229,0,1.6333,.08496,2.37402,.25488,.74023,.16992,1.396,.43066,1.96631,.78418,.5708,.35352,1.01904,.80176,1.34521,1.34473,.32617,.54395,.49561,1.18945,.50928,1.93652v.24414h-4.21826v-.08105c0-.24512-.06104-.47559-.18359-.69336-.12207-.2168-.31543-.39355-.58057-.5293s-.61475-.2041-1.04932-.2041c-.40771,0-.75098,.04102-1.0293,.12207-.27881,.08203-.48584,.19336-.62158,.33594-.13574,.14355-.20361,.2959-.20361,.45898,0,.25781,.11523,.46875,.34619,.63184s.54346,.29883,.9375,.40723c.39404,.10938,.83545,.21094,1.32471,.30566,.48877,.0957,.99854,.20117,1.52832,.31641s1.03906,.26855,1.52832,.45801c.48926,.19043,.93018,.43848,1.32471,.74414,.39355,.30566,.70605,.68262,.9375,1.13086,.23047,.44824,.34619,.99805,.34619,1.65039,0,1.15527-.26855,2.09277-.80469,2.8125-.53711,.71973-1.27051,1.24609-2.20117,1.5791s-1.98682,.49902-3.16895,.49902Z"/><path class="b" d="M84.74957,14.26465V.24414h8.27393c.88281,0,1.66064,.20117,2.33301,.60156,.67285,.40039,1.19921,.9541,1.57959,1.66113,.37988,.70605,.57031,1.52832,.57031,2.46484,0,.96484-.19336,1.80371-.58057,2.51758-.38721,.71289-.91699,1.2666-1.58936,1.66016-.67285,.39453-1.44385,.59082-2.31299,.59082h-3.77002v4.52441h-4.50391Zm4.50391-7.80469h2.26172c.47559,0,.83203-.12207,1.06982-.36719,.23779-.24414,.35693-.60449,.35693-1.08008,0-.32617-.05127-.59375-.15283-.80469-.10205-.21094-.2583-.37012-.46875-.47852-.21094-.10938-.479-.16309-.80518-.16309h-2.26172v2.89355Z"/><path class="b" d="M101.09235,14.26465V.24414h6.07275c1.60303,0,2.94824,.25195,4.03516,.75391,1.08643,.50293,1.91211,1.27051,2.47607,2.30273,.56348,1.0332,.8457,2.35059,.8457,3.9541,0,1.58887-.28223,2.90332-.8457,3.94238-.56396,1.04004-1.38965,1.81055-2.47607,2.31348-1.08691,.50293-2.43213,.75391-4.03516,.75391h-6.07275Zm4.50391-3.3623h1.4873c.48926,0,.91357-.06836,1.27393-.2041,.35986-.13574,.65527-.33301,.88623-.59082s.40088-.57715,.50977-.95801c.1084-.37988,.16309-.80762,.16309-1.2832v-1.22266c0-.47559-.05469-.90332-.16309-1.28418-.10889-.37988-.27881-.69922-.50977-.95801-.23096-.25781-.52637-.45508-.88623-.59082-.36035-.13574-.78467-.2041-1.27393-.2041h-1.4873v7.2959Z"/><path class="b" d="M116.53961,14.26465l5.01318-7.41797L117.02887,.24414h5.44092l2.11914,3.58691h.08154l2.13965-3.58691h5.03369l-4.54443,6.62305,5.01318,7.39746h-5.46143l-2.58838-4.36133h-.08105l-2.58838,4.36133h-5.05371Z"/></g><polygon class="b" points="56.64301 .58912 56.64301 .07276 0 .07276 0 56.71577 .5163 56.71577 56.64301 .58912"/><polygon class="c" points=".065 56.19941 .065 56.71577 56.70801 56.71577 56.70801 .07276 56.19171 .07276 .065 56.19941"/><path class="d" d="M12.02818,19.27833v8.07197c-.01111,3.26285,.89224,6.46341,2.60762,9.23916,1.71549,2.77564,4.17433,5.01496,7.09756,6.46446l4.5325,2.26664v-.00014c.9847,.48928,2.14166,.48928,3.1265,0l4.5339-2.26664v.00014c2.92309-1.44954,5.3819-3.68906,7.09686-6.46481,1.71524-2.7755,2.61858-5.97638,2.60749-9.23881v-8.07197c.00165-.81447-.28242-1.60372-.80281-2.23029-.52039-.62671-1.24408-1.05082-2.04496-1.19882-1.8137-.33372-3.59636-.81886-5.32888-1.45052-2.01589-.7356-3.95452-1.66777-5.78817-2.78277-.55347-.33701-1.18906-.51505-1.83702-.51477-.64796,.00027-1.28331,.179-1.83649,.51656-1.83361,1.11378-3.77193,2.04524-5.78747,2.78098-1.73238,.63135-3.51455,1.11652-5.32782,1.45052-.80116,.14759-1.52514,.57169-2.0458,1.1984-.52053,.62657-.80474,1.41607-.80295,2.23068l-.00007,.00003Zm10.17073,7.81845c.32919-.32933,.77581-.51435,1.24134-.51435,.46568,0,.91226,.18503,1.24134,.51435l2.27004,2.27004,5.7815-5.7815h.00014c.4451-.43524,1.08744-.60213,1.68806-.43878,.60076,.16336,1.07003,.63261,1.23337,1.23337,.16322,.60062-.0037,1.24296-.43892,1.68806l-7.02277,7.02277c-.32919,.32933-.77581,.51435-1.24134,.51435-.46568,0-.91226-.18503-1.24134-.51435l-3.51139-3.51139c-.32933-.32919-.51435-.77581-.51435-1.24134,0-.46568,.18503-.91215,.51435-1.24134l-.00003,.00011Z"/></g></svg>