<?xml version="1.0" encoding="UTF-8"?><svg id="a" xmlns="http://www.w3.org/2000/svg" viewBox="0 0 196.10089 57.36914"><defs><style>.b{fill:#003778;}.c{fill:#0094ff;}.d{fill:#fff;}</style></defs><g><g><path class="c" d="M68.52423,22.73047h15.77295c2.64307,0,4.97412,.4502,6.99316,1.35059,2.01855,.90039,3.69629,2.12793,5.03271,3.68164,1.33545,1.55371,2.34521,3.3623,3.02783,5.4248s1.02393,4.24121,1.02393,6.53516c0,2.32422-.34131,4.51758-1.02393,6.5791-.68262,2.06348-1.69238,3.86426-3.02783,5.40332-1.33643,1.54004-3.01416,2.75977-5.03271,3.66016-2.01904,.90039-4.3501,1.35059-6.99316,1.35059h-15.77295V22.73047Zm8.71436,8.45215v17.12402h6.40479c1.30713,0,2.45459-.21094,3.44238-.63184,.9873-.4209,1.81494-1.00879,2.4834-1.76465,.66797-.75488,1.16895-1.65625,1.50342-2.70117,.3335-1.0459,.50098-2.20703,.50098-3.48633,0-2.55566-.66846-4.61816-2.00439-6.18652-1.33643-1.56934-3.31104-2.35352-5.92578-2.35352h-6.40479Z"/><path class="c" d="M123.1629,22.73047l13.72461,33.98535h-9.49854l-1.87354-4.9668h-13.37646l-1.87354,4.9668h-9.49854l13.76855-33.98535h8.62744Zm-4.31396,11.1543l-3.74707,9.97754h7.45068l-3.70361-9.97754Z"/><path class="c" d="M133.48907,22.73047h29.89014v8.45215h-10.58789v25.5332h-8.71436V31.18262h-10.58789v-8.45215Z"/><path class="c" d="M182.37628,22.73047l13.72461,33.98535h-9.49854l-1.87354-4.9668h-13.37646l-1.87354,4.9668h-9.49854l13.76855-33.98535h8.62744Zm-4.31396,11.1543l-3.74707,9.97754h7.45068l-3.70361-9.97754Z"/></g><g><path class="b" d="M74.70319,14.50879c-.96436,0-1.86426-.07129-2.69971-.21387-.83594-.14258-1.56934-.38672-2.20117-.7334s-1.12793-.82812-1.4873-1.44727c-.36035-.61719-.54004-1.39551-.54004-2.33301v-.1123c0-.04688,.00635-.09766,.02002-.15234h4.25928c-.01367,.05469-.02051,.10547-.02051,.15234v.13281c0,.40723,.09521,.7207,.28516,.9375,.19043,.21777,.4585,.36328,.80518,.43848,.34619,.07422,.73682,.11133,1.17188,.11133,.16309,0,.33594-.00293,.51953-.00977s.35986-.02734,.52979-.06152c.16992-.0332,.32617-.08398,.46875-.15234s.25488-.16016,.33643-.27539,.12207-.26172,.12207-.43848c0-.25781-.11572-.46094-.34619-.61133-.23145-.14844-.54395-.27832-.9375-.38672-.39453-.1084-.83545-.21094-1.32471-.30566s-.99854-.20703-1.52832-.33594-1.03955-.2959-1.52832-.5c-.48926-.20312-.93066-.46484-1.32471-.78418s-.70654-.71973-.9375-1.20215-.34619-1.06348-.34619-1.74219c0-.81543,.16943-1.50879,.50928-2.0791,.33936-.57031,.80518-1.03223,1.396-1.38574,.59082-.35254,1.26318-.61133,2.01758-.77441,.75391-.16309,1.54492-.24414,2.37402-.24414,.84229,0,1.6333,.08496,2.37402,.25488,.74023,.16992,1.396,.43066,1.96631,.78418,.5708,.35352,1.01904,.80176,1.34521,1.34473,.32617,.54395,.49561,1.18945,.50928,1.93652v.24414h-4.21826v-.08105c0-.24512-.06104-.47559-.18359-.69336-.12207-.2168-.31543-.39355-.58057-.5293s-.61475-.2041-1.04932-.2041c-.40771,0-.75098,.04102-1.0293,.12207-.27881,.08203-.48584,.19336-.62158,.33594-.13574,.14355-.20361,.2959-.20361,.45898,0,.25781,.11523,.46875,.34619,.63184s.54346,.29883,.9375,.40723c.39404,.10938,.83545,.21094,1.32471,.30566,.48877,.0957,.99854,.20117,1.52832,.31641s1.03906,.26855,1.52832,.45801c.48926,.19043,.93018,.43848,1.32471,.74414,.39355,.30566,.70605,.68262,.9375,1.13086,.23047,.44824,.34619,.99805,.34619,1.65039,0,1.15527-.26855,2.09277-.80469,2.8125-.53711,.71973-1.27051,1.24609-2.20117,1.5791s-1.98682,.49902-3.16895,.49902Z"/><path class="b" d="M84.74957,14.26465V.24414h8.27393c.88281,0,1.66064,.20117,2.33301,.60156,.67285,.40039,1.19921,.9541,1.57959,1.66113,.37988,.70605,.57031,1.52832,.57031,2.46484,0,.96484-.19336,1.80371-.58057,2.51758-.38721,.71289-.91699,1.2666-1.58936,1.66016-.67285,.39453-1.44385,.59082-2.31299,.59082h-3.77002v4.52441h-4.50391Zm4.50391-7.80469h2.26172c.47559,0,.83203-.12207,1.06982-.36719,.23779-.24414,.35693-.60449,.35693-1.08008,0-.32617-.05127-.59375-.15283-.80469-.10205-.21094-.2583-.37012-.46875-.47852-.21094-.10938-.479-.16309-.80518-.16309h-2.26172v2.89355Z"/><path class="b" d="M101.09235,14.26465V.24414h6.07275c1.60303,0,2.94824,.25195,4.03516,.75391,1.08643,.50293,1.91211,1.27051,2.47607,2.30273,.56348,1.0332,.8457,2.35059,.8457,3.9541,0,1.58887-.28223,2.90332-.8457,3.94238-.56396,1.04004-1.38965,1.81055-2.47607,2.31348-1.08691,.50293-2.43213,.75391-4.03516,.75391h-6.07275Zm4.50391-3.3623h1.4873c.48926,0,.91357-.06836,1.27393-.2041,.35986-.13574,.65527-.33301,.88623-.59082s.40088-.57715,.50977-.95801c.1084-.37988,.16309-.80762,.16309-1.2832v-1.22266c0-.47559-.05469-.90332-.16309-1.28418-.10889-.37988-.27881-.69922-.50977-.95801-.23096-.25781-.52637-.45508-.88623-.59082-.36035-.13574-.78467-.2041-1.27393-.2041h-1.4873v7.2959Z"/><path class="b" d="M116.53961,14.26465l5.01318-7.41797L117.02887,.24414h5.44092l2.11914,3.58691h.08154l2.13965-3.58691h5.03369l-4.54443,6.62305,5.01318,7.39746h-5.46143l-2.58838-4.36133h-.08105l-2.58838,4.36133h-5.05371Z"/></g><polygon class="b" points="56.64301 .58939 56.64301 .07303 0 .07303 0 56.71604 .5163 56.71604 56.64301 .58939"/><polygon class="c" points=".065 56.19968 .065 56.71604 56.70801 56.71604 56.70801 .07303 56.19171 .07303 .065 56.19968"/></g><path class="d" d="M47.81326,16.65889c-2.68106,0-4.85745,2.17635-4.85745,4.85745,0,.37857,.04728,.75697,.12614,1.10397l-7.63314,3.15419c-.694-1.26168-1.78208-2.28679-3.07533-2.91762l2.63379-7.45966c.09456,.01571,.18928,.01571,.28385,.01571,1.7505,0,3.18577-1.43508,3.18577-3.18577,0-1.7505-1.43523-3.18561-3.20146-3.18561-1.76639,0-3.18577,1.43508-3.18577,3.18577,0,1.10397,.56768,2.0818,1.41939,2.64948l-2.63379,7.45966c-.50471-.11043-1.0408-.17342-1.57709-.17342-1.11966,0-2.17635,.26814-3.12261,.72539l-2.41292-3.75345c.8674-.80424,1.41939-1.97137,1.41939-3.24874,0-2.4445-1.98706-4.44741-4.44741-4.44741s-4.44741,2.00295-4.44741,4.44741,1.98706,4.44741,4.44741,4.44741c.59926,0,1.18282-.12614,1.70322-.34699l2.41292,3.75345c-1.16713,.94626-2.01864,2.25521-2.38133,3.76933l-9.30486-1.19851c-.22086-1.16713-1.26168-2.06592-2.49177-2.06592-1.40369,0-2.53904,1.13555-2.53904,2.53904,0,1.40369,1.13555,2.53904,2.53904,2.53904,1.00942,0,1.87682-.59926,2.28679-1.45097l9.30486,1.19851v.11043c0,1.71911,.61515,3.28032,1.64026,4.51049l-6.73419,7.06538c-.8674-.61515-1.90821-.96195-3.04375-.96195-2.91762,0-5.29904,2.38133-5.29904,5.29904s2.38133,5.29904,5.29904,5.29904,5.29904-2.38133,5.29904-5.29904c0-1.23009-.40997-2.34995-1.11966-3.24874l6.73419-7.06538c.97784,.74127,2.14477,1.23009,3.42234,1.3878l-.23656,4.21084c-1.0408,.31542-1.78208,1.29326-1.78208,2.4288,0,1.40369,1.13555,2.53904,2.53904,2.53904,1.40369,0,2.53904-1.13555,2.53904-2.53904,0-1.10397-.70969-2.05022-1.71911-2.39722l.23656-4.22661c.85171-.09456,1.65595-.33113,2.39722-.70969l6.81305,10.50345c-.5204,.56768-.85171,1.32484-.85171,2.16066,0,1.75049,1.43508,3.18577,3.18577,3.18577,1.7505,0,3.18577-1.43508,3.18577-3.18577,0-1.7505-1.43508-3.18577-3.18577-3.18577-.3627,0-.694,.06315-1.02511,.17342l-6.81305-10.50345c.64653-.53629,1.2144-1.19851,1.62437-1.93979l5.81948,2.52335c0,.07885-.01571,.15771-.01571,.23656,0,1.40369,1.13555,2.53904,2.53904,2.53904,1.40369,0,2.53904-1.13555,2.53904-2.53904,0-1.40369-1.13555-2.53904-2.53904-2.53904-.75696,0-1.43508,.33113-1.89251,.85171l-5.81948-2.52335c.20499-.64653,.29971-1.34053,.29971-2.05022,0-.67811-.09456-1.32484-.26814-1.93979l7.63314-3.16988c.85171,1.37211,2.38133,2.28679,4.11622,2.28679,2.68106,0,4.85745-2.17635,4.85745-4.85745,0-2.68138-2.16066-4.84207-4.82591-4.84207l-.00011-.00005Z"/></svg>