<svg version="1.1" id="Layer_1" xmlns="http://www.w3.org/2000/svg" xmlns:xlink="http://www.w3.org/1999/xlink" x="0px" y="0px"
	 width="100%" viewBox="0 0 1671 250" enable-background="new 0 0 1671 250" xml:space="preserve">
<path fill="#000000" opacity="1.000000" stroke="none" 
	d="
M1026.000000,251.000000 
	C1012.645752,251.000000 999.291565,251.000000 985.461060,250.611206 
	C979.679565,234.239914 974.375854,218.256927 969.069031,202.274979 
	C958.496033,170.433273 947.823425,138.623886 937.471619,106.710442 
	C936.186401,102.748253 934.448425,101.835037 930.586487,101.905144 
	C917.091797,102.150108 903.589844,102.000000 890.090698,102.000000 
	C880.911743,102.000000 880.926514,102.004791 878.164673,110.508781 
	C869.806824,136.243820 861.400024,161.963013 853.086304,187.712311 
	C848.953918,200.511337 845.047791,213.383392 840.913330,226.181747 
	C838.784851,232.770508 836.380188,239.270050 833.908386,246.360779 
	C820.351074,226.014862 807.173462,206.238724 793.808105,186.180893 
	C796.465881,184.836700 798.679138,183.827423 800.786377,182.631454 
	C807.822998,178.637802 814.623291,174.357773 816.678162,165.710464 
	C819.092163,155.551941 820.362549,145.164474 817.779968,135.005234 
	C815.661011,126.669548 811.989685,119.038383 804.354004,113.553795 
	C792.479553,105.024574 778.902710,102.779228 765.094543,102.180473 
	C747.794800,101.430313 730.437744,101.994308 713.105469,102.009468 
	C711.498840,102.010880 709.892334,102.144836 708.000000,102.230133 
	C708.000000,152.061707 708.000000,201.530853 708.000000,251.000000 
	C699.979065,251.000000 691.958191,251.000000 683.468628,250.531342 
	C683.000000,239.131668 683.000000,228.200638 683.000000,216.792511 
	C666.653992,216.792511 650.922546,216.792511 635.387329,216.792511 
	C635.387329,207.569809 635.387329,198.839798 635.387329,189.814529 
	C650.382996,189.814529 664.993103,189.814529 679.712280,189.814529 
	C679.712280,178.774536 679.712280,168.048737 679.712280,156.837067 
	C664.699219,156.837067 649.968018,156.837067 635.365356,156.837067 
	C635.365356,149.280579 635.365356,142.217819 635.365356,134.858597 
	C651.338379,134.858597 666.948120,134.858597 682.734497,134.858597 
	C682.734497,123.819992 682.734497,113.094429 682.734497,102.301392 
	C653.077576,102.301392 623.687256,102.301392 594.000000,102.301392 
	C594.000000,152.068130 594.000000,201.534058 594.000000,251.000000 
	C563.979126,251.000000 533.958191,251.000000 503.468658,250.531342 
	C503.000000,234.135101 503.000000,218.207520 503.000000,202.917038 
	C513.472351,201.901016 523.428528,201.741943 533.035278,199.828323 
	C550.843262,196.281067 563.412231,185.855209 568.359619,167.983765 
	C570.719604,159.458679 572.229004,150.685699 571.122009,141.544159 
	C569.506897,128.206635 563.524780,117.806229 552.210266,110.745399 
	C541.821899,104.262573 530.136475,102.095909 518.053345,102.025169 
	C501.058990,101.925659 484.063690,101.994263 467.068787,102.009377 
	C465.465607,102.010803 463.862549,102.143372 462.000000,102.226654 
	C462.000000,152.078552 462.000000,201.539276 462.000000,251.000000 
	C436.645782,251.000000 411.291534,251.000000 385.185242,250.658325 
	C385.259857,249.879211 386.039551,249.239914 386.920380,249.034561 
	C400.768494,245.806351 412.653351,239.083389 421.433136,227.911194 
	C434.334839,211.493896 435.659546,191.544022 436.830566,171.823563 
	C437.194000,165.703796 435.911560,159.431808 434.940399,153.299545 
	C433.323242,143.088181 429.950867,133.322784 424.139435,124.814674 
	C412.193390,107.325317 394.520325,99.596985 374.069977,98.149574 
	C361.944336,97.291367 349.732880,97.605232 337.776733,100.954216 
	C316.515472,106.909599 302.085693,120.289154 295.186798,141.038528 
	C289.597931,157.847870 290.063477,175.334930 291.959869,192.804092 
	C295.026489,221.052231 312.568237,242.866058 340.460144,249.079361 
	C341.085022,249.218567 341.491577,250.337891 342.000000,251.000000 
	C311.979095,251.000000 281.958221,251.000000 251.468597,250.531342 
	C250.999924,167.041794 250.999954,84.020897 251.000000,1.000000 
	C270.354218,1.000000 289.708466,1.000000 309.558167,1.383340 
	C308.610046,2.391996 307.206085,3.139610 305.716278,3.622502 
	C296.989166,6.451209 291.593018,12.546389 290.969025,19.846291 
	C289.874298,32.653564 294.098572,38.338966 303.358765,42.023937 
	C307.907532,43.834068 312.831512,44.697361 317.579041,46.013161 
	C321.748444,47.168720 325.908600,48.357769 330.252991,49.582836 
	C327.982941,56.954723 322.737701,54.879997 318.691833,54.888729 
	C313.435181,54.900066 310.553802,51.827183 310.684906,46.267818 
	C303.773529,46.267818 297.184479,46.267818 290.647491,46.267818 
	C288.898315,55.524811 293.486115,64.703873 302.292847,67.492210 
	C314.384674,71.320679 326.660400,72.608818 339.185669,68.163658 
	C353.125092,63.216602 357.288147,41.098713 345.952209,33.641678 
	C342.051880,31.075958 337.377472,29.534912 332.879761,28.068350 
	C327.427582,26.290552 321.748657,25.215670 316.261108,23.532585 
	C315.100067,23.176487 313.378876,21.186329 313.603546,20.508924 
	C314.041473,19.188847 315.491425,17.725992 316.841949,17.270815 
	C322.379089,15.404580 326.702759,17.195623 329.996979,22.190260 
	C330.465332,22.900358 331.271332,23.876745 331.938538,23.890614 
	C338.194214,24.020649 344.453674,23.967770 350.645233,23.967770 
	C351.161407,14.261343 346.178741,7.140756 337.430786,3.927245 
	C335.813660,3.333203 334.469910,1.994829 333.000000,0.999999 
	C345.354218,1.000000 357.708466,1.000000 370.531342,1.468657 
	C371.000000,24.500870 371.000000,47.064423 371.000000,69.672379 
	C379.023560,69.672379 386.261566,69.672379 394.188293,69.672379 
	C394.188293,62.324970 394.188293,55.283981 394.188293,48.000000 
	C400.032074,48.000000 405.183014,48.031406 410.333374,47.993176 
	C419.772125,47.923115 427.889191,44.797253 431.900940,35.818443 
	C435.726593,27.256107 436.116608,18.197075 430.459045,10.026093 
	C428.137146,6.672724 424.848724,3.988585 422.000000,1.000004 
	C431.354218,1.000000 440.708466,1.000000 450.531342,1.468657 
	C451.000000,24.513342 451.000000,47.089367 451.000000,70.498062 
	C465.088593,69.954132 478.375763,69.894691 491.567993,68.745445 
	C498.430908,68.147591 504.628906,65.094856 509.455902,59.375248 
	C516.192444,51.392960 517.250977,42.132725 516.978638,32.401485 
	C516.599731,18.863745 511.265076,8.447948 498.107574,3.057867 
	C497.265350,2.712853 496.696198,1.701418 496.000000,1.000002 
	C506.687561,1.000000 517.375122,1.000000 528.553955,1.355449 
	C536.229492,12.341767 543.413757,22.972637 550.658936,33.693611 
	C546.478455,39.684238 542.249146,45.593567 538.183716,51.613544 
	C534.196838,57.517189 530.376587,63.533360 526.157104,69.999969 
	C534.047546,69.999969 541.053955,69.749184 548.029541,70.103783 
	C551.617615,70.286194 553.462280,68.808250 555.035767,65.965736 
	C557.957581,60.687313 561.063293,55.510689 564.410034,49.744488 
	C567.953003,55.810738 571.073669,61.248440 574.307251,66.618095 
	C575.036743,67.829361 576.134888,69.717575 577.105835,69.744194 
	C585.964050,69.987007 594.831665,69.886826 604.539368,69.886826 
	C596.731812,58.275879 589.671265,47.541893 582.320679,37.010338 
	C580.500793,34.402916 580.411377,32.699997 582.254150,30.076984 
	C588.988342,20.491652 595.441162,10.708572 602.000000,0.999995 
	C945.687561,1.000000 1289.375122,1.000000 1633.531372,1.468657 
	C1633.944580,37.291168 1633.889282,72.645020 1633.504639,107.846344 
	C1632.133789,107.306320 1631.072510,106.964897 1630.053833,106.524536 
	C1610.911011,98.248344 1591.198730,95.407661 1570.424561,98.873787 
	C1550.560669,102.188011 1533.177856,112.938965 1530.461914,134.090057 
	C1528.648315,148.214050 1530.296631,161.633881 1540.932495,172.382782 
	C1549.593872,181.136093 1560.740356,185.885712 1571.632202,191.076218 
	C1577.621460,193.930283 1583.673096,196.916183 1589.021851,200.777405 
	C1594.369751,204.638031 1593.267700,212.523193 1587.194336,215.157990 
	C1583.423950,216.793640 1578.995850,218.102890 1575.004272,217.784958 
	C1567.263794,217.168365 1559.476440,215.839340 1551.981079,213.802490 
	C1544.218384,211.692978 1536.778809,208.394348 1529.000366,205.543427 
	C1529.000366,216.719223 1528.869141,227.850204 1529.147461,238.970978 
	C1529.187500,240.569199 1530.882202,242.997162 1532.359619,243.535080 
	C1538.266113,245.685516 1544.402466,247.198257 1550.412598,249.078690 
	C1551.077026,249.286591 1551.477295,250.339172 1552.000000,251.000000 
	C1536.979126,251.000000 1521.958130,251.000000 1506.468628,250.531342 
	C1506.000000,200.803223 1506.000000,151.543747 1506.000000,102.346710 
	C1493.321899,102.346710 1481.260986,102.346710 1469.499634,102.346710 
	C1469.499634,135.905746 1469.499634,169.117691 1469.499634,202.945129 
	C1464.408203,193.409622 1459.540894,184.429001 1454.797363,175.383469 
	C1442.701538,152.318268 1430.597534,129.256744 1418.676514,106.101257 
	C1417.143311,103.123161 1415.622681,101.842354 1412.095825,101.899139 
	C1397.267578,102.137833 1382.433350,101.993050 1367.601318,102.011078 
	C1366.161011,102.012833 1364.721069,102.169090 1363.000000,102.270119 
	C1363.000000,152.063644 1363.000000,201.531830 1363.000000,251.000000 
	C1337.312378,251.000000 1311.624878,251.000000 1285.187134,250.652588 
	C1285.266724,249.871460 1286.050415,249.228928 1286.932861,249.034958 
	C1303.216797,245.455429 1316.066406,236.757202 1324.985107,222.723541 
	C1335.519653,206.147064 1336.659302,187.183563 1336.728760,168.419174 
	C1336.769287,157.471725 1334.440918,146.519379 1330.149536,136.091675 
	C1324.995117,123.566711 1317.147827,113.485741 1305.218140,107.106331 
	C1284.701050,96.134819 1262.781616,95.986237 1240.644653,100.252449 
	C1228.563110,102.580788 1217.863525,108.482025 1209.383423,117.319847 
	C1197.264404,129.949966 1192.038086,145.961182 1191.232422,163.016953 
	C1190.683594,174.634872 1191.450439,186.487976 1193.172852,198.005005 
	C1197.081177,224.139450 1214.571655,243.697800 1241.427979,249.083939 
	C1242.054932,249.209671 1242.480591,250.338837 1243.000000,251.000000 
	C1217.312378,251.000000 1191.624878,251.000000 1165.468628,250.531342 
	C1165.000000,200.817505 1165.000000,151.572327 1165.000000,102.319344 
	C1150.703125,102.319344 1136.980469,102.319344 1123.000000,102.319344 
	C1123.000000,152.092148 1123.000000,201.546082 1123.000000,251.000000 
	C1104.979126,251.000000 1086.958130,251.000000 1068.468628,250.531342 
	C1068.000000,212.140381 1068.000000,174.218094 1068.000000,135.810974 
	C1080.327881,135.810974 1092.060303,135.810974 1103.624023,135.810974 
	C1103.624023,124.258781 1103.624023,113.198128 1103.624023,102.229286 
	C1065.645508,102.229286 1028.043457,102.229286 990.266785,102.229286 
	C990.266785,113.517700 990.266785,124.575668 990.266785,136.120209 
	C1002.257141,136.120209 1013.989624,136.120209 1026.000000,136.120209 
	C1026.000000,174.738297 1026.000000,212.869156 1026.000000,251.000000 
z"/>
<path fill="#0094FF" opacity="1.000000" stroke="none" 
	d="
M708.468628,251.000000 
	C708.000000,201.530853 708.000000,152.061707 708.000000,102.230133 
	C709.892334,102.144836 711.498840,102.010880 713.105469,102.009468 
	C730.437744,101.994308 747.794800,101.430313 765.094543,102.180473 
	C778.902710,102.779228 792.479553,105.024574 804.354004,113.553795 
	C811.989685,119.038383 815.661011,126.669548 817.779968,135.005234 
	C820.362549,145.164474 819.092163,155.551941 816.678162,165.710464 
	C814.623291,174.357773 807.822998,178.637802 800.786377,182.631454 
	C798.679138,183.827423 796.465881,184.836700 793.808105,186.180893 
	C807.173462,206.238724 820.351074,226.014862 833.908386,246.360779 
	C836.380188,239.270050 838.784851,232.770508 840.913330,226.181747 
	C845.047791,213.383392 848.953918,200.511337 853.086304,187.712311 
	C861.400024,161.963013 869.806824,136.243820 878.164673,110.508781 
	C880.926514,102.004791 880.911743,102.000000 890.090698,102.000000 
	C903.589844,102.000000 917.091797,102.150108 930.586487,101.905144 
	C934.448425,101.835037 936.186401,102.748253 937.471619,106.710442 
	C947.823425,138.623886 958.496033,170.433273 969.069031,202.274979 
	C974.375854,218.256927 979.679565,234.239914 984.992371,250.611206 
	C970.312439,251.000000 955.624878,251.000000 940.459351,250.600922 
	C937.985718,242.723465 935.935547,235.258957 934.027832,227.758209 
	C933.462280,225.534714 932.924011,223.924255 930.031372,223.946991 
	C915.259827,224.063110 900.486938,224.000641 885.366760,224.000641 
	C882.895569,233.057556 880.447815,242.028778 878.000000,251.000000 
	C848.645752,251.000000 819.291565,251.000000 789.755066,250.699768 
	C780.693359,235.138153 771.672852,219.956375 762.993164,204.582199 
	C758.566589,196.741470 757.232727,195.775909 749.000000,197.761414 
	C749.000000,215.474747 749.000000,233.237381 749.000000,251.000000 
	C735.645752,251.000000 722.291565,251.000000 708.468628,251.000000 
M900.923828,164.334839 
	C898.636108,172.754410 896.348328,181.173981 894.053467,189.619843 
	C904.144958,189.619843 914.005798,189.619843 924.189209,189.619843 
	C919.223389,170.243134 914.369324,151.302475 909.128052,130.850845 
	C906.199829,142.613007 903.599915,153.056458 900.923828,164.334839 
M772.466858,136.977356 
	C765.532898,130.892120 757.257141,133.640182 749.270386,132.987640 
	C749.270386,144.201416 749.270386,154.924393 749.270386,166.409943 
	C754.619019,165.912170 759.799072,166.066238 764.639160,164.858261 
	C778.204163,161.472717 780.264343,143.852997 772.466858,136.977356 
z"/>
<path fill="#0194FF" opacity="1.000000" stroke="none" 
	d="
M250.666672,1.000000 
	C250.999954,84.020897 250.999924,167.041794 250.999939,250.531342 
	C168.996033,251.000000 86.992050,251.010864 4.988239,250.898773 
	C3.730564,250.897049 0.687733,252.940170 1.341235,248.645325 
	C3.192166,247.033234 4.798574,245.874435 6.196841,244.503372 
	C23.470638,227.565765 40.714085,210.597214 58.270847,193.823196 
	C60.973690,196.064407 63.282799,198.233948 65.783295,200.154282 
	C78.238129,209.719437 78.255875,209.696396 90.702309,200.525146 
	C90.836174,200.426498 90.963158,200.318451 91.097740,200.220825 
	C95.847092,196.775787 104.866623,199.339996 105.800697,204.997726 
	C107.501076,215.297012 112.012131,221.381454 123.391426,219.795792 
	C124.009323,219.709717 124.677933,220.090057 125.332199,220.147217 
	C136.856247,221.153961 138.632233,219.950912 141.820740,208.999252 
	C142.006500,208.361221 142.060104,207.677841 142.297806,207.062943 
	C143.353073,204.333084 143.759216,201.525696 140.380066,200.420044 
	C136.836044,199.260452 134.983612,201.591141 134.645248,204.802475 
	C133.997604,210.948883 130.579025,212.816727 124.885933,211.854126 
	C123.591675,211.635300 122.219307,211.719162 120.899704,211.842957 
	C118.199272,212.096252 116.208794,211.332764 115.957138,208.342407 
	C115.009117,197.077347 107.961464,192.134338 97.631714,190.854416 
	C95.378952,190.575272 92.821014,191.009811 90.705864,191.864044 
	C88.613319,192.709137 86.644814,194.257584 85.075569,195.924576 
	C81.084282,200.164444 77.502594,199.217255 73.394768,195.993652 
	C67.469254,191.343597 67.327560,191.500366 69.897354,184.320877 
	C70.566231,182.452148 71.357147,180.627090 72.340027,178.644897 
	C72.709633,177.980896 72.831238,177.453964 72.968567,176.962082 
	C72.984299,176.997116 72.915169,176.963638 73.265091,177.019989 
	C78.398033,172.577103 83.181053,168.077866 88.290283,163.741287 
	C99.255547,173.410828 111.779427,177.810333 125.969101,177.581619 
	C129.612808,177.522888 134.821365,178.702423 134.714035,173.119797 
	C134.613251,167.878677 129.546371,169.115326 126.096603,169.180191 
	C113.897606,169.409485 103.334061,165.617844 94.851776,156.607605 
	C98.292007,153.107452 101.544159,149.897202 105.134811,146.839096 
	C118.624901,157.033783 134.609558,155.976257 145.026367,144.374466 
	C154.484131,133.840820 154.326233,119.591217 144.883636,106.246620 
	C148.739609,102.554718 152.318527,99.109116 156.207733,95.839554 
	C165.598312,105.681519 168.755234,117.343506 168.571411,130.333847 
	C168.545258,132.182510 170.618561,135.422653 172.089005,135.651779 
	C175.309967,136.153656 176.079514,133.395920 176.238205,130.343689 
	C177.055161,114.630264 172.286926,100.928833 162.196274,88.936203 
	C166.905228,84.427101 171.338791,80.118362 175.792343,76.205803 
	C176.389969,78.109123 176.837051,79.682869 177.566391,81.112633 
	C182.383316,90.555405 189.531418,95.504005 200.589493,93.085884 
	C201.726715,92.837212 203.895294,93.211624 204.194580,93.900833 
	C205.902893,97.834755 207.899719,101.887383 208.275787,106.037674 
	C208.429596,107.735275 205.060486,110.312927 202.784378,111.559753 
	C197.042358,114.705132 194.590088,118.628128 194.469086,125.700066 
	C194.332077,133.706604 196.485138,138.847244 203.663635,142.234451 
	C206.535309,143.589462 209.622238,145.213135 208.216919,149.807404 
	C207.864685,150.958893 209.982712,153.972458 211.329056,154.230118 
	C212.713089,154.494980 215.383575,152.807892 216.035034,151.332199 
	C219.461990,143.569382 218.883057,142.062332 212.077866,137.370850 
	C210.299133,136.144577 208.502472,134.943924 206.736954,133.699020 
	C201.408386,129.941711 201.537827,122.284630 206.982208,118.545525 
	C219.717865,109.798920 219.718124,109.798813 214.380417,95.035027 
	C214.098145,94.254272 213.821365,93.470940 213.514359,92.699821 
	C210.204224,84.385872 210.202698,84.386749 201.535812,84.397469 
	C200.038620,84.399323 198.541412,84.398170 197.044220,84.397675 
	C187.705627,84.394569 183.909271,79.093681 187.064835,70.468018 
	C188.317551,67.043716 189.562790,63.616680 191.116837,60.021332 
	C210.004044,41.320759 228.595337,22.799177 247.137283,4.228340 
	C247.985306,3.378998 248.389221,2.086235 249.000000,0.999998 
	C249.444443,1.000000 249.888901,1.000000 250.666672,1.000000 
M186.672867,147.707748 
	C182.969238,146.853790 179.294662,145.440857 175.556763,145.246735 
	C162.352707,144.560944 150.591858,152.291687 145.637466,164.427017 
	C140.721832,176.467438 143.906219,190.430420 153.554352,199.141312 
	C163.134094,207.790451 177.399338,209.745514 188.861008,203.442200 
	C192.371475,201.511642 194.385101,201.922806 196.912506,204.714752 
	C200.708069,208.907639 204.861465,212.777039 208.871857,216.774826 
	C210.961945,218.858322 213.267014,221.006226 216.075943,218.180252 
	C218.739609,215.500412 217.155838,213.131516 214.887589,210.939835 
	C210.935684,207.121368 207.230698,203.038773 203.169510,199.344711 
	C199.923828,196.392456 198.340073,193.853104 202.794830,190.634781 
	C203.750626,189.944290 204.338882,188.463943 204.670212,187.232758 
	C208.942856,171.355423 202.078613,155.835205 186.672867,147.707748 
z"/>
<path fill="#013878" opacity="1.000000" stroke="none" 
	d="
M57.965347,193.636627 
	C40.714085,210.597214 23.470638,227.565765 6.196841,244.503372 
	C4.798574,245.874435 3.192166,247.033234 1.341235,248.145325 
	C1.000000,165.739471 1.000000,83.478958 1.000000,1.000000 
	C83.354095,1.000000 165.708389,1.000000 248.531342,0.999998 
	C248.389221,2.086235 247.985306,3.378998 247.137283,4.228340 
	C228.595337,22.799177 210.004044,41.320759 190.945374,59.721020 
	C186.788025,56.083923 183.505203,51.989727 179.352936,49.180771 
	C166.568558,40.532326 169.568954,41.718693 158.965576,49.325222 
	C158.019485,50.003922 157.118011,50.746964 156.153961,51.398144 
	C151.894806,54.275017 143.523712,51.294567 142.018906,46.380787 
	C137.535858,31.741886 137.535843,31.741892 122.119125,31.816204 
	C121.952530,31.817007 121.785934,31.815136 121.619347,31.816542 
	C109.867584,31.915791 109.866318,31.915422 106.519424,42.880978 
	C106.228119,43.835407 105.987808,44.805542 105.690453,45.757969 
	C103.801270,51.809158 95.380981,54.419186 90.171227,50.573975 
	C78.016052,41.602493 78.016045,41.602486 65.747040,50.849644 
	C65.614037,50.949890 65.482368,51.051903 65.350090,51.153099 
	C55.929996,58.360073 55.666618,58.469234 60.174179,69.344772 
	C62.122868,74.046440 61.884079,77.381599 58.597706,81.411278 
	C55.943211,84.666153 52.971886,83.734360 50.027245,83.762756 
	C37.101349,83.887405 37.100670,83.816833 33.041508,96.138412 
	C28.578932,109.684555 28.578999,109.684456 40.353313,117.413017 
	C40.492180,117.504166 40.612217,117.623917 40.750698,117.715759 
	C46.657955,121.633781 46.707542,129.015213 40.852650,133.056519 
	C28.057619,141.888199 28.057426,141.888275 33.493931,156.617035 
	C33.781681,157.396622 34.062965,158.179031 34.371532,158.950424 
	C37.532318,166.852142 37.533722,166.851578 46.246258,166.851593 
	C48.245384,166.851593 50.244518,166.848862 52.243641,166.852081 
	C59.569553,166.863907 63.440384,172.743759 61.185658,179.844559 
	C59.761238,184.330475 59.015503,189.031876 57.965347,193.636627 
z"/>
<path fill="#0094FF" opacity="1.000000" stroke="none" 
	d="
M1363.468628,251.000000 
	C1363.000000,201.531830 1363.000000,152.063644 1363.000000,102.270119 
	C1364.721069,102.169090 1366.161011,102.012833 1367.601318,102.011078 
	C1382.433350,101.993050 1397.267578,102.137833 1412.095825,101.899139 
	C1415.622681,101.842354 1417.143311,103.123161 1418.676514,106.101257 
	C1430.597534,129.256744 1442.701538,152.318268 1454.797363,175.383469 
	C1459.540894,184.429001 1464.408203,193.409622 1469.499634,202.945129 
	C1469.499634,169.117691 1469.499634,135.905746 1469.499634,102.346710 
	C1481.260986,102.346710 1493.321899,102.346710 1506.000000,102.346710 
	C1506.000000,151.543747 1506.000000,200.803223 1506.000000,250.531342 
	C1487.645752,251.000000 1469.291504,251.000000 1450.772461,250.702988 
	C1448.526489,246.540253 1446.383789,242.706192 1444.373901,238.803711 
	C1432.010132,214.798569 1419.696533,190.767532 1407.317261,166.770386 
	C1404.501953,161.313202 1401.493408,155.955765 1399.000000,151.340988 
	C1399.000000,184.230118 1399.000000,217.615051 1399.000000,251.000000 
	C1387.312378,251.000000 1375.624878,251.000000 1363.468628,251.000000 
z"/>
<path fill="#0094FF" opacity="1.000000" stroke="none" 
	d="
M1243.468628,251.000000 
	C1242.480591,250.338837 1242.054932,249.209671 1241.427979,249.083939 
	C1214.571655,243.697800 1197.081177,224.139450 1193.172852,198.005005 
	C1191.450439,186.487976 1190.683594,174.634872 1191.232422,163.016953 
	C1192.038086,145.961182 1197.264404,129.949966 1209.383423,117.319847 
	C1217.863525,108.482025 1228.563110,102.580788 1240.644653,100.252449 
	C1262.781616,95.986237 1284.701050,96.134819 1305.218140,107.106331 
	C1317.147827,113.485741 1324.995117,123.566711 1330.149536,136.091675 
	C1334.440918,146.519379 1336.769287,157.471725 1336.728760,168.419174 
	C1336.659302,187.183563 1335.519653,206.147064 1324.985107,222.723541 
	C1316.066406,236.757202 1303.216797,245.455429 1286.932861,249.034958 
	C1286.050415,249.228928 1285.266724,249.871460 1284.718506,250.652588 
	C1271.312378,251.000000 1257.624878,251.000000 1243.468628,251.000000 
M1234.000000,164.545883 
	C1234.333496,172.800323 1233.984375,181.153000 1235.155029,189.286926 
	C1237.065796,202.563446 1242.828369,213.187943 1256.998413,216.608978 
	C1271.834839,220.190948 1281.314697,216.672989 1287.429077,202.888306 
	C1295.625366,184.410110 1295.148926,165.252777 1287.750000,146.761154 
	C1280.965698,129.805115 1258.966431,128.196869 1247.354004,136.384781 
	C1238.137939,142.883026 1235.167236,152.937897 1234.000000,164.545883 
z"/>
<path fill="#0094FF" opacity="1.000000" stroke="none" 
	d="
M342.468658,251.000000 
	C341.491577,250.337891 341.085022,249.218567 340.460144,249.079361 
	C312.568237,242.866058 295.026489,221.052231 291.959869,192.804092 
	C290.063477,175.334930 289.597931,157.847870 295.186798,141.038528 
	C302.085693,120.289154 316.515472,106.909599 337.776733,100.954216 
	C349.732880,97.605232 361.944336,97.291367 374.069977,98.149574 
	C394.520325,99.596985 412.193390,107.325317 424.139435,124.814674 
	C429.950867,133.322784 433.323242,143.088181 434.940399,153.299545 
	C435.911560,159.431808 437.194000,165.703796 436.830566,171.823563 
	C435.659546,191.544022 434.334839,211.493896 421.433136,227.911194 
	C412.653351,239.083389 400.768494,245.806351 386.920380,249.034561 
	C386.039551,249.239914 385.259857,249.879211 384.716553,250.658325 
	C370.979095,251.000000 356.958221,251.000000 342.468658,251.000000 
M383.022247,139.537003 
	C374.201935,129.717056 354.696777,129.830750 346.203186,137.175232 
	C334.933929,146.919800 333.587311,160.033966 333.311920,173.448654 
	C333.195526,179.119003 334.036163,184.883804 335.078461,190.487244 
	C337.124054,201.484039 341.333649,212.004669 353.021027,215.071854 
	C360.761230,217.103134 369.425507,215.821884 377.661621,215.562637 
	C379.144653,215.515945 380.781860,213.409790 381.965973,211.945618 
	C390.144592,201.832657 392.709076,189.700119 392.828186,177.245544 
	C392.952759,164.219376 391.868866,151.140121 383.022247,139.537003 
z"/>
<path fill="#0094FF" opacity="1.000000" stroke="none" 
	d="
M462.468658,251.000000 
	C462.000000,201.539276 462.000000,152.078552 462.000000,102.226654 
	C463.862549,102.143372 465.465607,102.010803 467.068787,102.009377 
	C484.063690,101.994263 501.058990,101.925659 518.053345,102.025169 
	C530.136475,102.095909 541.821899,104.262573 552.210266,110.745399 
	C563.524780,117.806229 569.506897,128.206635 571.122009,141.544159 
	C572.229004,150.685699 570.719604,159.458679 568.359619,167.983765 
	C563.412231,185.855209 550.843262,196.281067 533.035278,199.828323 
	C523.428528,201.741943 513.472351,201.901016 503.000000,202.917038 
	C503.000000,218.207520 503.000000,234.135101 503.000000,250.531342 
	C489.645782,251.000000 476.291534,251.000000 462.468658,251.000000 
M504.000000,152.499573 
	C504.000000,157.929230 504.000000,163.358902 504.000000,168.738983 
	C517.277954,169.424011 527.534119,165.622101 529.601135,152.781769 
	C530.741211,145.699570 528.600586,138.692642 520.710144,136.460678 
	C515.510559,134.989853 509.832672,135.209747 504.000000,134.636322 
	C504.000000,140.907944 504.000000,146.204285 504.000000,152.499573 
z"/>
<path fill="#0094FF" opacity="1.000000" stroke="none" 
	d="
M1552.468628,251.000000 
	C1551.477295,250.339172 1551.077026,249.286591 1550.412598,249.078690 
	C1544.402466,247.198257 1538.266113,245.685516 1532.359619,243.535080 
	C1530.882202,242.997162 1529.187500,240.569199 1529.147461,238.970978 
	C1528.869141,227.850204 1529.000366,216.719223 1529.000366,205.543427 
	C1536.778809,208.394348 1544.218384,211.692978 1551.981079,213.802490 
	C1559.476440,215.839340 1567.263794,217.168365 1575.004272,217.784958 
	C1578.995850,218.102890 1583.423950,216.793640 1587.194336,215.157990 
	C1593.267700,212.523193 1594.369751,204.638031 1589.021851,200.777405 
	C1583.673096,196.916183 1577.621460,193.930283 1571.632202,191.076218 
	C1560.740356,185.885712 1549.593872,181.136093 1540.932495,172.382782 
	C1530.296631,161.633881 1528.648315,148.214050 1530.461914,134.090057 
	C1533.177856,112.938965 1550.560669,102.188011 1570.424561,98.873787 
	C1591.198730,95.407661 1610.911011,98.248344 1630.053833,106.524536 
	C1631.072510,106.964897 1632.133789,107.306320 1633.574951,108.218430 
	C1633.927979,109.496346 1633.881470,110.249641 1633.517090,111.185181 
	C1629.396118,120.951637 1625.593140,130.535858 1622.261108,138.933029 
	C1609.785889,135.862900 1598.125244,132.659805 1586.304810,130.236496 
	C1581.042847,129.157745 1575.937134,131.264984 1572.317017,135.433182 
	C1569.299072,138.908157 1571.030029,144.664658 1576.607788,147.753769 
	C1584.674194,152.221237 1593.168457,155.911819 1601.444580,160.006104 
	C1611.959473,165.208054 1622.730469,170.209641 1628.620361,181.218246 
	C1630.778931,185.252914 1632.120605,189.724594 1633.905273,194.459259 
	C1633.928711,199.948868 1633.881836,204.976074 1633.499512,210.217224 
	C1632.987427,212.220749 1633.087402,214.091019 1632.592285,215.787598 
	C1627.062622,234.732941 1613.540405,244.691360 1595.044800,249.067612 
	C1594.255127,249.254486 1593.676758,250.335510 1593.000000,251.000000 
	C1579.645752,251.000000 1566.291504,251.000000 1552.468628,251.000000 
z"/>
<path fill="#0094FF" opacity="1.000000" stroke="none" 
	d="
M594.468628,251.000000 
	C594.000000,201.534058 594.000000,152.068130 594.000000,102.301392 
	C623.687256,102.301392 653.077576,102.301392 682.734497,102.301392 
	C682.734497,113.094429 682.734497,123.819992 682.734497,134.858597 
	C666.948120,134.858597 651.338379,134.858597 635.365356,134.858597 
	C635.365356,142.217819 635.365356,149.280579 635.365356,156.837067 
	C649.968018,156.837067 664.699219,156.837067 679.712280,156.837067 
	C679.712280,168.048737 679.712280,178.774536 679.712280,189.814529 
	C664.993103,189.814529 650.382996,189.814529 635.387329,189.814529 
	C635.387329,198.839798 635.387329,207.569809 635.387329,216.792511 
	C650.922546,216.792511 666.653992,216.792511 683.000000,216.792511 
	C683.000000,228.200638 683.000000,239.131668 683.000000,250.531342 
	C653.645752,251.000000 624.291565,251.000000 594.468628,251.000000 
z"/>
<path fill="#FFFFFF" opacity="1.000000" stroke="none" 
	d="
M1633.834839,111.002945 
	C1633.881470,110.249641 1633.927979,109.496346 1633.904297,108.370956 
	C1633.889282,72.645020 1633.944580,37.291168 1634.000000,1.468657 
	C1646.649658,1.000000 1659.299316,1.000000 1672.000000,1.000000 
	C1672.000000,84.037941 1672.000122,167.075897 1671.995850,250.113846 
	C1671.995728,250.409622 1671.931763,250.705399 1671.892578,251.000580 
	C1659.570679,251.000000 1647.254028,251.000000 1634.468750,250.531342 
	C1633.945068,236.709549 1633.890137,223.356430 1633.835083,210.003296 
	C1633.881836,204.976074 1633.928711,199.948868 1633.981812,193.994812 
	C1633.937012,165.712952 1633.885864,138.357956 1633.834839,111.002945 
z"/>
<path fill="#0094FF" opacity="1.000000" stroke="none" 
	d="
M1026.468628,251.000000 
	C1026.000000,212.869156 1026.000000,174.738297 1026.000000,136.120209 
	C1013.989624,136.120209 1002.257141,136.120209 990.266785,136.120209 
	C990.266785,124.575668 990.266785,113.517700 990.266785,102.229286 
	C1028.043457,102.229286 1065.645508,102.229286 1103.624023,102.229286 
	C1103.624023,113.198128 1103.624023,124.258781 1103.624023,135.810974 
	C1092.060303,135.810974 1080.327881,135.810974 1068.000000,135.810974 
	C1068.000000,174.218094 1068.000000,212.140381 1068.000000,250.531342 
	C1054.312378,251.000000 1040.624878,251.000000 1026.468628,251.000000 
z"/>
<path fill="#0094FF" opacity="1.000000" stroke="none" 
	d="
M1123.468628,251.000000 
	C1123.000000,201.546082 1123.000000,152.092148 1123.000000,102.319344 
	C1136.980469,102.319344 1150.703125,102.319344 1165.000000,102.319344 
	C1165.000000,151.572327 1165.000000,200.817505 1165.000000,250.531342 
	C1151.312378,251.000000 1137.624878,251.000000 1123.468628,251.000000 
z"/>
<path fill="#003778" opacity="1.000000" stroke="none" 
	d="
M495.531342,1.000002 
	C496.696198,1.701418 497.265350,2.712853 498.107574,3.057867 
	C511.265076,8.447948 516.599731,18.863745 516.978638,32.401485 
	C517.250977,42.132725 516.192444,51.392960 509.455902,59.375248 
	C504.628906,65.094856 498.430908,68.147591 491.567993,68.745445 
	C478.375763,69.894691 465.088593,69.954132 451.000000,70.498062 
	C451.000000,47.089367 451.000000,24.513342 451.000000,1.468657 
	C465.687561,1.000000 480.375122,1.000000 495.531342,1.000002 
M474.854431,52.725548 
	C478.294891,52.601566 481.871521,53.037609 485.148346,52.240746 
	C492.716553,50.400280 493.482330,43.516602 493.737915,37.620728 
	C494.270996,25.322718 490.549316,16.255182 474.231873,19.771357 
	C474.231873,30.500439 474.231873,41.275154 474.854431,52.725548 
z"/>
<path fill="#003778" opacity="1.000000" stroke="none" 
	d="
M601.531372,0.999995 
	C595.441162,10.708572 588.988342,20.491652 582.254150,30.076984 
	C580.411377,32.699997 580.500793,34.402916 582.320679,37.010338 
	C589.671265,47.541893 596.731812,58.275879 604.539368,69.886826 
	C594.831665,69.886826 585.964050,69.987007 577.105835,69.744194 
	C576.134888,69.717575 575.036743,67.829361 574.307251,66.618095 
	C571.073669,61.248440 567.953003,55.810738 564.410034,49.744488 
	C561.063293,55.510689 557.957581,60.687313 555.035767,65.965736 
	C553.462280,68.808250 551.617615,70.286194 548.029541,70.103783 
	C541.053955,69.749184 534.047546,69.999969 526.157104,69.999969 
	C530.376587,63.533360 534.196838,57.517189 538.183716,51.613544 
	C542.249146,45.593567 546.478455,39.684238 550.658936,33.693611 
	C543.413757,22.972637 536.229492,12.341767 529.022644,1.355449 
	C538.020874,1.000000 547.041809,1.000000 556.554443,1.357308 
	C559.940308,6.531226 562.834351,11.347836 566.326294,17.159498 
	C569.624634,11.014622 572.312317,6.007312 575.000000,1.000001 
	C583.687561,1.000000 592.375183,1.000000 601.531372,0.999995 
z"/>
<path fill="#003778" opacity="1.000000" stroke="none" 
	d="
M332.531372,0.999999 
	C334.469910,1.994829 335.813660,3.333203 337.430786,3.927245 
	C346.178741,7.140756 351.161407,14.261343 350.645233,23.967770 
	C344.453674,23.967770 338.194214,24.020649 331.938538,23.890614 
	C331.271332,23.876745 330.465332,22.900358 329.996979,22.190260 
	C326.702759,17.195623 322.379089,15.404580 316.841949,17.270815 
	C315.491425,17.725992 314.041473,19.188847 313.603546,20.508924 
	C313.378876,21.186329 315.100067,23.176487 316.261108,23.532585 
	C321.748657,25.215670 327.427582,26.290552 332.879761,28.068350 
	C337.377472,29.534912 342.051880,31.075958 345.952209,33.641678 
	C357.288147,41.098713 353.125092,63.216602 339.185669,68.163658 
	C326.660400,72.608818 314.384674,71.320679 302.292847,67.492210 
	C293.486115,64.703873 288.898315,55.524811 290.647491,46.267818 
	C297.184479,46.267818 303.773529,46.267818 310.684906,46.267818 
	C310.553802,51.827183 313.435181,54.900066 318.691833,54.888729 
	C322.737701,54.879997 327.982941,56.954723 330.252991,49.582836 
	C325.908600,48.357769 321.748444,47.168720 317.579041,46.013161 
	C312.831512,44.697361 307.907532,43.834068 303.358765,42.023937 
	C294.098572,38.338966 289.874298,32.653564 290.969025,19.846291 
	C291.593018,12.546389 296.989166,6.451209 305.716278,3.622502 
	C307.206085,3.139610 308.610046,2.391996 310.026855,1.383340 
	C317.354248,1.000000 324.708496,1.000000 332.531372,0.999999 
z"/>
<path fill="#003778" opacity="1.000000" stroke="none" 
	d="
M421.531342,1.000004 
	C424.848724,3.988585 428.137146,6.672724 430.459045,10.026093 
	C436.116608,18.197075 435.726593,27.256107 431.900940,35.818443 
	C427.889191,44.797253 419.772125,47.923115 410.333374,47.993176 
	C405.183014,48.031406 400.032074,48.000000 394.188293,48.000000 
	C394.188293,55.283981 394.188293,62.324970 394.188293,69.672379 
	C386.261566,69.672379 379.023560,69.672379 371.000000,69.672379 
	C371.000000,47.064423 371.000000,24.500870 371.000000,1.468657 
	C387.687561,1.000000 404.375122,1.000000 421.531342,1.000004 
M394.001160,21.683897 
	C394.001160,24.627104 394.001160,27.570311 394.001160,30.980463 
	C398.424469,30.980463 402.233459,31.214737 406.000183,30.915880 
	C409.922363,30.604694 412.356293,25.682045 410.572968,22.228758 
	C408.628296,18.463028 397.724670,16.143459 394.383148,18.862700 
	C393.999573,19.174835 394.121094,20.107632 394.001160,21.683897 
z"/>
<path fill="#000000" opacity="1.000000" stroke="none" 
	d="
M1399.468628,251.000000 
	C1399.000000,217.615051 1399.000000,184.230118 1399.000000,151.340988 
	C1401.493408,155.955765 1404.501953,161.313202 1407.317261,166.770386 
	C1419.696533,190.767532 1432.010132,214.798569 1444.373901,238.803711 
	C1446.383789,242.706192 1448.526489,246.540253 1450.303955,250.702988 
	C1433.312378,251.000000 1416.624878,251.000000 1399.468628,251.000000 
z"/>
<path fill="#000000" opacity="1.000000" stroke="none" 
	d="
M878.468628,251.000000 
	C880.447815,242.028778 882.895569,233.057556 885.366760,224.000641 
	C900.486938,224.000641 915.259827,224.063110 930.031372,223.946991 
	C932.924011,223.924255 933.462280,225.534714 934.027832,227.758209 
	C935.935547,235.258957 937.985718,242.723465 939.990723,250.600922 
	C919.645752,251.000000 899.291565,251.000000 878.468628,251.000000 
z"/>
<path fill="#000000" opacity="1.000000" stroke="none" 
	d="
M749.468628,251.000000 
	C749.000000,233.237381 749.000000,215.474747 749.000000,197.761414 
	C757.232727,195.775909 758.566589,196.741470 762.993164,204.582199 
	C771.672852,219.956375 780.693359,235.138153 789.286377,250.699768 
	C775.979126,251.000000 762.958191,251.000000 749.468628,251.000000 
z"/>
<path fill="#000000" opacity="1.000000" stroke="none" 
	d="
M1633.499512,210.217224 
	C1633.890137,223.356430 1633.945068,236.709549 1634.000000,250.531342 
	C1620.645752,251.000000 1607.291504,251.000000 1593.468628,251.000000 
	C1593.676758,250.335510 1594.255127,249.254486 1595.044800,249.067612 
	C1613.540405,244.691360 1627.062622,234.732941 1632.592285,215.787598 
	C1633.087402,214.091019 1632.987427,212.220749 1633.499512,210.217224 
z"/>
<path fill="#000000" opacity="1.000000" stroke="none" 
	d="
M574.532043,1.000001 
	C572.312317,6.007312 569.624634,11.014622 566.326294,17.159498 
	C562.834351,11.347836 559.940308,6.531226 557.023071,1.357308 
	C562.688049,1.000000 568.376038,1.000000 574.532043,1.000001 
z"/>
<path fill="#000000" opacity="1.000000" stroke="none" 
	d="
M900.961914,163.917374 
	C903.599915,153.056458 906.199829,142.613007 909.128052,130.850845 
	C914.369324,151.302475 919.223389,170.243134 924.189209,189.619843 
	C914.005798,189.619843 904.144958,189.619843 894.053467,189.619843 
	C896.348328,181.173981 898.636108,172.754410 900.961914,163.917374 
z"/>
<path fill="#000000" opacity="1.000000" stroke="none" 
	d="
M772.739136,137.246643 
	C780.264343,143.852997 778.204163,161.472717 764.639160,164.858261 
	C759.799072,166.066238 754.619019,165.912170 749.270386,166.409943 
	C749.270386,154.924393 749.270386,144.201416 749.270386,132.987640 
	C757.257141,133.640182 765.532898,130.892120 772.739136,137.246643 
z"/>
<path fill="#F7FAFC" opacity="1.000000" stroke="none" 
	d="
M58.270844,193.823196 
	C59.015503,189.031876 59.761238,184.330475 61.185658,179.844559 
	C63.440384,172.743759 59.569553,166.863907 52.243641,166.852081 
	C50.244518,166.848862 48.245384,166.851593 46.246258,166.851593 
	C37.533722,166.851578 37.532318,166.852142 34.371532,158.950424 
	C34.062965,158.179031 33.781681,157.396622 33.493931,156.617035 
	C28.057426,141.888275 28.057619,141.888199 40.852650,133.056519 
	C46.707542,129.015213 46.657955,121.633781 40.750698,117.715759 
	C40.612217,117.623917 40.492180,117.504166 40.353313,117.413017 
	C28.578999,109.684456 28.578932,109.684555 33.041508,96.138412 
	C37.100670,83.816833 37.101349,83.887405 50.027245,83.762756 
	C52.971886,83.734360 55.943211,84.666153 58.597706,81.411278 
	C61.884079,77.381599 62.122868,74.046440 60.174179,69.344772 
	C55.666618,58.469234 55.929996,58.360073 65.350090,51.153099 
	C65.482368,51.051903 65.614037,50.949890 65.747040,50.849644 
	C78.016045,41.602486 78.016052,41.602493 90.171227,50.573975 
	C95.380981,54.419186 103.801270,51.809158 105.690453,45.757969 
	C105.987808,44.805542 106.228119,43.835407 106.519424,42.880978 
	C109.866318,31.915422 109.867584,31.915791 121.619347,31.816542 
	C121.785934,31.815136 121.952530,31.817007 122.119125,31.816204 
	C137.535843,31.741892 137.535858,31.741886 142.018906,46.380787 
	C143.523712,51.294567 151.894806,54.275017 156.153961,51.398144 
	C157.118011,50.746964 158.019485,50.003922 158.965576,49.325222 
	C169.568954,41.718693 166.568558,40.532326 179.352936,49.180771 
	C183.505203,51.989727 186.788025,56.083923 190.639984,59.890572 
	C189.562790,63.616680 188.317551,67.043716 187.064835,70.468018 
	C183.909271,79.093681 187.705627,84.394569 197.044220,84.397675 
	C198.541412,84.398170 200.038620,84.399323 201.535812,84.397469 
	C210.202698,84.386749 210.204224,84.385872 213.514359,92.699821 
	C213.821365,93.470940 214.098145,94.254272 214.380417,95.035027 
	C219.718124,109.798813 219.717865,109.798920 206.982208,118.545525 
	C201.537827,122.284630 201.408386,129.941711 206.736954,133.699020 
	C208.502472,134.943924 210.299133,136.144577 212.077866,137.370850 
	C218.883057,142.062332 219.461990,143.569382 216.035034,151.332199 
	C215.383575,152.807892 212.713089,154.494980 211.329056,154.230118 
	C209.982712,153.972458 207.864685,150.958893 208.216919,149.807404 
	C209.622238,145.213135 206.535309,143.589462 203.663635,142.234451 
	C196.485138,138.847244 194.332077,133.706604 194.469086,125.700066 
	C194.590088,118.628128 197.042358,114.705132 202.784378,111.559753 
	C205.060486,110.312927 208.429596,107.735275 208.275787,106.037674 
	C207.899719,101.887383 205.902893,97.834755 204.194580,93.900833 
	C203.895294,93.211624 201.726715,92.837212 200.589493,93.085884 
	C189.531418,95.504005 182.383316,90.555405 177.566391,81.112633 
	C176.837051,79.682869 176.389969,78.109123 175.930115,75.868820 
	C177.300751,71.708588 178.652039,68.312660 179.751114,64.836952 
	C180.117950,63.676903 180.380920,61.666477 179.765045,61.150566 
	C176.605347,58.503742 173.393478,55.595783 169.669342,54.098999 
	C168.091675,53.464916 165.147491,55.941910 162.952820,57.224617 
	C161.240509,58.225399 159.885284,60.068535 158.086990,60.635860 
	C155.473206,61.460449 152.544861,62.023346 149.853348,61.735989 
	C139.404022,60.620373 133.304947,54.836834 132.244507,44.156933 
	C132.212036,43.829918 132.185699,43.391327 131.977768,43.211929 
	C131.081497,42.438637 130.193542,41.250031 129.168320,41.093872 
	C117.366478,39.296253 116.025772,40.196304 112.750824,51.563873 
	C112.521057,52.361439 112.492256,53.364086 111.982109,53.906693 
	C110.305687,55.689758 108.708992,57.792103 106.619476,58.900406 
	C97.296097,63.845634 88.753990,63.038605 81.276215,54.962128 
	C80.449455,54.069168 78.101212,53.756924 76.846474,54.221939 
	C68.407997,57.349316 66.516960,61.528233 69.451508,69.752495 
	C69.897835,71.003357 70.257454,72.297180 70.828094,73.489319 
	C72.298401,76.560951 71.242897,78.929550 69.591629,81.738960 
	C64.363998,90.633080 57.677414,96.029800 46.652866,93.645584 
	C45.563473,93.409981 43.632401,94.236221 42.997337,95.179283 
	C38.082951,102.477112 39.114155,107.403496 46.293598,112.248238 
	C47.809299,113.271042 49.659019,114.014297 50.769516,115.366913 
	C52.119110,117.010773 53.235836,119.069122 53.737324,121.122986 
	C54.235958,123.165184 53.608105,125.456055 53.892288,127.581993 
	C54.691746,133.562592 52.480984,137.427002 47.159100,140.584534 
	C38.324608,145.826126 38.667957,146.117554 42.247887,155.771652 
	C43.473927,159.077942 45.085423,160.585907 48.726383,160.222717 
	C52.189144,159.877304 55.710907,160.043091 59.203461,160.124420 
	C60.285789,160.149628 61.873352,160.275574 62.351883,160.964798 
	C65.995445,166.212708 69.421432,171.611694 72.915169,176.963638 
	C72.915169,176.963638 72.984299,176.997116 72.678268,177.027664 
	C72.278831,177.632797 72.185425,178.207397 72.092018,178.781982 
	C71.357147,180.627090 70.566231,182.452148 69.897354,184.320877 
	C67.327560,191.500366 67.469254,191.343597 73.394768,195.993652 
	C77.502594,199.217255 81.084282,200.164444 85.075569,195.924576 
	C86.644814,194.257584 88.613319,192.709137 90.705864,191.864044 
	C92.821014,191.009811 95.378952,190.575272 97.631714,190.854416 
	C107.961464,192.134338 115.009117,197.077347 115.957138,208.342407 
	C116.208794,211.332764 118.199272,212.096252 120.899704,211.842957 
	C122.219307,211.719162 123.591675,211.635300 124.885933,211.854126 
	C130.579025,212.816727 133.997604,210.948883 134.645248,204.802475 
	C134.983612,201.591141 136.836044,199.260452 140.380066,200.420044 
	C143.759216,201.525696 143.353073,204.333084 142.297806,207.062943 
	C142.060104,207.677841 142.006500,208.361221 141.820740,208.999252 
	C138.632233,219.950912 136.856247,221.153961 125.332199,220.147217 
	C124.677933,220.090057 124.009323,219.709717 123.391426,219.795792 
	C112.012131,221.381454 107.501076,215.297012 105.800697,204.997726 
	C104.866623,199.339996 95.847092,196.775787 91.097740,200.220825 
	C90.963158,200.318451 90.836174,200.426498 90.702309,200.525146 
	C78.255875,209.696396 78.238129,209.719437 65.783295,200.154282 
	C63.282799,198.233948 60.973690,196.064407 58.270844,193.823196 
z"/>
<path fill="#02397A" opacity="1.000000" stroke="none" 
	d="
M73.265091,177.019989 
	C69.421432,171.611694 65.995445,166.212708 62.351883,160.964798 
	C61.873352,160.275574 60.285789,160.149628 59.203461,160.124420 
	C55.710907,160.043091 52.189144,159.877304 48.726383,160.222717 
	C45.085423,160.585907 43.473927,159.077942 42.247887,155.771652 
	C38.667957,146.117554 38.324608,145.826126 47.159100,140.584534 
	C52.480984,137.427002 54.691746,133.562592 53.892288,127.581993 
	C53.608105,125.456055 54.235958,123.165184 53.737324,121.122986 
	C53.235836,119.069122 52.119110,117.010773 50.769516,115.366913 
	C49.659019,114.014297 47.809299,113.271042 46.293598,112.248238 
	C39.114155,107.403496 38.082951,102.477112 42.997337,95.179283 
	C43.632401,94.236221 45.563473,93.409981 46.652866,93.645584 
	C57.677414,96.029800 64.363998,90.633080 69.591629,81.738960 
	C71.242897,78.929550 72.298401,76.560951 70.828094,73.489319 
	C70.257454,72.297180 69.897835,71.003357 69.451508,69.752495 
	C66.516960,61.528233 68.407997,57.349316 76.846474,54.221939 
	C78.101212,53.756924 80.449455,54.069168 81.276215,54.962128 
	C88.753990,63.038605 97.296097,63.845634 106.619476,58.900406 
	C108.708992,57.792103 110.305687,55.689758 111.982109,53.906693 
	C112.492256,53.364086 112.521057,52.361439 112.750824,51.563873 
	C116.025772,40.196304 117.366478,39.296253 129.168320,41.093872 
	C130.193542,41.250031 131.081497,42.438637 131.977768,43.211929 
	C132.185699,43.391327 132.212036,43.829918 132.244507,44.156933 
	C133.304947,54.836834 139.404022,60.620373 149.853348,61.735989 
	C152.544861,62.023346 155.473206,61.460449 158.086990,60.635860 
	C159.885284,60.068535 161.240509,58.225399 162.952820,57.224617 
	C165.147491,55.941910 168.091675,53.464916 169.669342,54.098999 
	C173.393478,55.595783 176.605347,58.503742 179.765045,61.150566 
	C180.380920,61.666477 180.117950,63.676903 179.751114,64.836952 
	C178.652039,68.312660 177.300751,71.708588 175.910141,75.472641 
	C171.338791,80.118362 166.905228,84.427101 161.884674,88.801682 
	C133.006256,61.525917 87.354866,71.514488 74.732170,108.144829 
	C67.506073,129.114594 72.857513,147.651993 87.964081,163.578644 
	C83.181053,168.077866 78.398033,172.577103 73.265091,177.019989 
z"/>
<path fill="#F6FAFD" opacity="1.000000" stroke="none" 
	d="
M88.290283,163.741287 
	C72.857513,147.651993 67.506073,129.114594 74.732170,108.144829 
	C87.354866,71.514488 133.006256,61.525917 161.609283,89.002052 
	C172.286926,100.928833 177.055161,114.630264 176.238205,130.343689 
	C176.079514,133.395920 175.309967,136.153656 172.089005,135.651779 
	C170.618561,135.422653 168.545258,132.182510 168.571411,130.333847 
	C168.755234,117.343506 165.598312,105.681519 156.067932,95.568970 
	C144.828354,84.743782 132.023636,80.260597 117.250389,83.030624 
	C99.868462,86.289772 88.100922,96.649887 83.081177,113.564957 
	C78.181435,130.075668 82.151451,144.765152 94.663696,156.897522 
	C103.334061,165.617844 113.897606,169.409485 126.096603,169.180191 
	C129.546371,169.115326 134.613251,167.878677 134.714035,173.119797 
	C134.821365,178.702423 129.612808,177.522888 125.969101,177.581619 
	C111.779427,177.810333 99.255547,173.410828 88.290283,163.741287 
z"/>
<path fill="#043A7B" opacity="1.000000" stroke="none" 
	d="
M94.851776,156.607605 
	C82.151451,144.765152 78.181435,130.075668 83.081177,113.564957 
	C88.100922,96.649887 99.868462,86.289772 117.250389,83.030624 
	C132.023636,80.260597 144.828354,84.743782 155.757660,95.392929 
	C152.318527,99.109116 148.739609,102.554718 144.602875,106.050735 
	C130.510910,94.449158 113.220131,95.117546 102.408104,107.794983 
	C94.516525,117.048111 92.021416,133.323471 104.796326,146.686951 
	C101.544159,149.897202 98.292007,153.107452 94.851776,156.607605 
z"/>
<path fill="#F8FCFF" opacity="1.000000" stroke="none" 
	d="
M187.030151,147.844543 
	C202.078613,155.835205 208.942856,171.355423 204.670212,187.232758 
	C204.338882,188.463943 203.750626,189.944290 202.794830,190.634781 
	C198.340073,193.853104 199.923828,196.392456 203.169510,199.344711 
	C207.230698,203.038773 210.935684,207.121368 214.887589,210.939835 
	C217.155838,213.131516 218.739609,215.500412 216.075943,218.180252 
	C213.267014,221.006226 210.961945,218.858322 208.871857,216.774826 
	C204.861465,212.777039 200.708069,208.907639 196.912506,204.714752 
	C194.385101,201.922806 192.371475,201.511642 188.861008,203.442200 
	C177.399338,209.745514 163.134094,207.790451 153.554352,199.141312 
	C143.906219,190.430420 140.721832,176.467438 145.637466,164.427017 
	C150.591858,152.291687 162.352707,144.560944 175.556763,145.246735 
	C179.294662,145.440857 182.969238,146.853790 187.030151,147.844543 
M183.549088,197.411636 
	C185.260834,196.397324 187.082169,195.529495 188.666260,194.344528 
	C197.751465,187.548340 200.166290,174.424973 194.173721,164.828491 
	C187.888596,154.763580 175.311356,151.008026 164.998291,156.116745 
	C154.177521,161.476990 149.287292,173.820587 153.654984,184.748810 
	C158.294708,196.357681 169.904099,201.535980 183.549088,197.411636 
z"/>
<path fill="#F7FAFD" opacity="1.000000" stroke="none" 
	d="
M105.134819,146.839111 
	C92.021416,133.323471 94.516525,117.048111 102.408104,107.794983 
	C113.220131,95.117546 130.510910,94.449158 144.325836,106.297035 
	C154.326233,119.591217 154.484131,133.840820 145.026367,144.374466 
	C134.609558,155.976257 118.624901,157.033783 105.134819,146.839111 
M111.120445,140.924988 
	C120.325996,147.673050 131.188782,147.036804 138.475418,139.322784 
	C145.509384,131.876251 145.622360,121.223511 138.484146,112.198586 
	C129.273956,103.821999 116.946823,103.931870 109.265244,112.459023 
	C101.732140,120.821327 102.389732,132.908371 111.120445,140.924988 
z"/>
<path fill="#02397A" opacity="1.000000" stroke="none" 
	d="
M72.340027,178.644897 
	C72.185425,178.207397 72.278831,177.632797 72.662537,176.992630 
	C72.831238,177.453964 72.709633,177.980896 72.340027,178.644897 
z"/>
<path fill="#000000" opacity="1.000000" stroke="none" 
	d="
M1234.000000,164.092087 
	C1235.167236,152.937897 1238.137939,142.883026 1247.354004,136.384781 
	C1258.966431,128.196869 1280.965698,129.805115 1287.750000,146.761154 
	C1295.148926,165.252777 1295.625366,184.410110 1287.429077,202.888306 
	C1281.314697,216.672989 1271.834839,220.190948 1256.998413,216.608978 
	C1242.828369,213.187943 1237.065796,202.563446 1235.155029,189.286926 
	C1233.984375,181.153000 1234.333496,172.800323 1234.000000,164.092087 
z"/>
<path fill="#000000" opacity="1.000000" stroke="none" 
	d="
M383.285156,139.797302 
	C391.868866,151.140121 392.952759,164.219376 392.828186,177.245544 
	C392.709076,189.700119 390.144592,201.832657 381.965973,211.945618 
	C380.781860,213.409790 379.144653,215.515945 377.661621,215.562637 
	C369.425507,215.821884 360.761230,217.103134 353.021027,215.071854 
	C341.333649,212.004669 337.124054,201.484039 335.078461,190.487244 
	C334.036163,184.883804 333.195526,179.119003 333.311920,173.448654 
	C333.587311,160.033966 334.933929,146.919800 346.203186,137.175232 
	C354.696777,129.830750 374.201935,129.717056 383.285156,139.797302 
z"/>
<path fill="#000000" opacity="1.000000" stroke="none" 
	d="
M504.000000,152.000092 
	C504.000000,146.204285 504.000000,140.907944 504.000000,134.636322 
	C509.832672,135.209747 515.510559,134.989853 520.710144,136.460678 
	C528.600586,138.692642 530.741211,145.699570 529.601135,152.781769 
	C527.534119,165.622101 517.277954,169.424011 504.000000,168.738983 
	C504.000000,163.358902 504.000000,157.929230 504.000000,152.000092 
z"/>
<path fill="#000000" opacity="1.000000" stroke="none" 
	d="
M1633.517090,111.185181 
	C1633.885864,138.357956 1633.937012,165.712952 1633.911621,193.532410 
	C1632.120605,189.724594 1630.778931,185.252914 1628.620361,181.218246 
	C1622.730469,170.209641 1611.959473,165.208054 1601.444580,160.006104 
	C1593.168457,155.911819 1584.674194,152.221237 1576.607788,147.753769 
	C1571.030029,144.664658 1569.299072,138.908157 1572.317017,135.433182 
	C1575.937134,131.264984 1581.042847,129.157745 1586.304810,130.236496 
	C1598.125244,132.659805 1609.785889,135.862900 1622.261108,138.933029 
	C1625.593140,130.535858 1629.396118,120.951637 1633.517090,111.185181 
z"/>
<path fill="#000000" opacity="1.000000" stroke="none" 
	d="
M474.543152,52.387711 
	C474.231873,41.275154 474.231873,30.500439 474.231873,19.771357 
	C490.549316,16.255182 494.270996,25.322718 493.737915,37.620728 
	C493.482330,43.516602 492.716553,50.400280 485.148346,52.240746 
	C481.871521,53.037609 478.294891,52.601566 474.543152,52.387711 
z"/>
<path fill="#000000" opacity="1.000000" stroke="none" 
	d="
M394.004791,21.218273 
	C394.121094,20.107632 393.999573,19.174835 394.383148,18.862700 
	C397.724670,16.143459 408.628296,18.463028 410.572968,22.228758 
	C412.356293,25.682045 409.922363,30.604694 406.000183,30.915880 
	C402.233459,31.214737 398.424469,30.980463 394.001160,30.980463 
	C394.001160,27.570311 394.001160,24.627104 394.004791,21.218273 
z"/>
<path fill="#0295FF" opacity="1.000000" stroke="none" 
	d="
M183.194107,197.588928 
	C169.904099,201.535980 158.294708,196.357681 153.654984,184.748810 
	C149.287292,173.820587 154.177521,161.476990 164.998291,156.116745 
	C175.311356,151.008026 187.888596,154.763580 194.173721,164.828491 
	C200.166290,174.424973 197.751465,187.548340 188.666260,194.344528 
	C187.082169,195.529495 185.260834,196.397324 183.194107,197.588928 
z"/>
<path fill="#033B7C" opacity="1.000000" stroke="none" 
	d="
M110.781570,140.330170 
	C102.389732,132.908371 101.732140,120.821327 109.265244,112.459023 
	C116.946823,103.931870 129.273956,103.821999 138.338837,112.665878 
	C129.056213,122.198837 119.918884,131.264496 110.781570,140.330170 
z"/>
<path fill="#0395FF" opacity="1.000000" stroke="none" 
	d="
M110.951004,140.627579 
	C119.918884,131.264496 129.056213,122.198837 138.475281,112.952957 
	C145.622360,121.223511 145.509384,131.876251 138.475418,139.322784 
	C131.188782,147.036804 120.325996,147.673050 110.951004,140.627579 
z"/>
</svg>