<?xml version="1.0" encoding="UTF-8"?><svg id="a" xmlns="http://www.w3.org/2000/svg" viewBox="0 0 206.58795 57.29671"><defs><style>.b{fill:#003778;}.c{fill:#0094ff;}.d{fill:#fff;}</style></defs><g><path class="b" d="M74.70319,14.43636c-.96436,0-1.86426-.07129-2.69971-.21387-.83594-.14258-1.56934-.38672-2.20117-.7334s-1.12793-.82812-1.4873-1.44727c-.36035-.61719-.54004-1.39551-.54004-2.33301v-.1123c0-.04688,.00635-.09766,.02002-.15234h4.25928c-.01367,.05469-.02051,.10547-.02051,.15234v.13281c0,.40723,.09521,.7207,.28516,.9375,.19043,.21777,.4585,.36328,.80518,.43848,.34619,.07422,.73682,.11133,1.17188,.11133,.16309,0,.33594-.00293,.51953-.00977s.35986-.02734,.52979-.06152c.16992-.0332,.32617-.08398,.46875-.15234s.25488-.16016,.33643-.27539,.12207-.26172,.12207-.43848c0-.25781-.11572-.46094-.34619-.61133-.23145-.14844-.54395-.27832-.9375-.38672-.39453-.1084-.83545-.21094-1.32471-.30566s-.99854-.20703-1.52832-.33594-1.03955-.2959-1.52832-.5c-.48926-.20312-.93066-.46484-1.32471-.78418s-.70654-.71973-.9375-1.20215-.34619-1.06348-.34619-1.74219c0-.81543,.16943-1.50879,.50928-2.0791,.33936-.57031,.80518-1.03223,1.396-1.38574,.59082-.35254,1.26318-.61133,2.01758-.77441,.75391-.16309,1.54492-.24414,2.37402-.24414,.84229,0,1.6333,.08496,2.37402,.25488,.74023,.16992,1.396,.43066,1.96631,.78418,.5708,.35352,1.01904,.80176,1.34521,1.34473,.32617,.54395,.49561,1.18945,.50928,1.93652v.24414h-4.21826v-.08105c0-.24512-.06104-.47559-.18359-.69336-.12207-.2168-.31543-.39355-.58057-.5293s-.61475-.2041-1.04932-.2041c-.40771,0-.75098,.04102-1.0293,.12207-.27881,.08203-.48584,.19336-.62158,.33594-.13574,.14355-.20361,.2959-.20361,.45898,0,.25781,.11523,.46875,.34619,.63184s.54346,.29883,.9375,.40723c.39404,.10938,.83545,.21094,1.32471,.30566,.48877,.0957,.99854,.20117,1.52832,.31641s1.03906,.26855,1.52832,.45801c.48926,.19043,.93018,.43848,1.32471,.74414,.39355,.30566,.70605,.68262,.9375,1.13086,.23047,.44824,.34619,.99805,.34619,1.65039,0,1.15527-.26855,2.09277-.80469,2.8125-.53711,.71973-1.27051,1.24609-2.20117,1.5791s-1.98682,.49902-3.16895,.49902Z"/><path class="b" d="M84.74957,14.19222V.17171h8.27393c.88281,0,1.66064,.20117,2.33301,.60156,.67285,.40039,1.19921,.9541,1.57959,1.66113,.37988,.70605,.57031,1.52832,.57031,2.46484,0,.96484-.19336,1.80371-.58057,2.51758-.38721,.71289-.91699,1.2666-1.58936,1.66016-.67285,.39453-1.44385,.59082-2.31299,.59082h-3.77002v4.52441h-4.50391Zm4.50391-7.80469h2.26172c.47559,0,.83203-.12207,1.06982-.36719,.23779-.24414,.35693-.60449,.35693-1.08008,0-.32617-.05127-.59375-.15283-.80469-.10205-.21094-.2583-.37012-.46875-.47852-.21094-.10938-.479-.16309-.80518-.16309h-2.26172v2.89355Z"/><path class="b" d="M101.09235,14.19222V.17171h6.07275c1.60303,0,2.94824,.25195,4.03516,.75391,1.08643,.50293,1.91211,1.27051,2.47607,2.30273,.56348,1.0332,.8457,2.35059,.8457,3.9541,0,1.58887-.28223,2.90332-.8457,3.94238-.56396,1.04004-1.38965,1.81055-2.47607,2.31348-1.08691,.50293-2.43213,.75391-4.03516,.75391h-6.07275Zm4.50391-3.3623h1.4873c.48926,0,.91357-.06836,1.27393-.2041,.35986-.13574,.65527-.33301,.88623-.59082s.40088-.57715,.50977-.95801c.1084-.37988,.16309-.80762,.16309-1.2832v-1.22266c0-.47559-.05469-.90332-.16309-1.28418-.10889-.37988-.27881-.69922-.50977-.95801-.23096-.25781-.52637-.45508-.88623-.59082-.36035-.13574-.78467-.2041-1.27393-.2041h-1.4873v7.2959Z"/><path class="b" d="M116.53961,14.19222l5.01318-7.41797L117.02887,.17171h5.44092l2.11914,3.58691h.08154l2.13965-3.58691h5.03369l-4.54443,6.62305,5.01318,7.39746h-5.46143l-2.58838-4.36133h-.08105l-2.58838,4.36133h-5.05371Z"/></g><g><g><path class="c" d="M102.06061,47.53694c-.75537,1.45312-1.68506,2.77441-2.78857,3.96484-1.104,1.19141-2.35254,2.21582-3.74707,3.07227-1.39404,.85645-2.90479,1.52441-4.53125,2.00391-1.62744,.47949-3.31152,.71875-5.05469,.71875-2.43994,0-4.75635-.46484-6.94922-1.39355-2.19385-.92969-4.11084-2.19336-5.75146-3.79102-1.6416-1.59766-2.94141-3.46387-3.8999-5.59961-.9585-2.13477-1.43799-4.42188-1.43799-6.8623,0-2.43945,.47949-4.72754,1.43799-6.8623s2.2583-4.00098,3.8999-5.59863c1.64062-1.59766,3.55762-2.86133,5.75146-3.79102,2.19287-.92969,4.50928-1.39453,6.94922-1.39453,1.74316,0,3.42041,.24023,5.03271,.71875,1.6123,.47949,3.11523,1.14062,4.50977,1.9834,1.39404,.84277,2.64258,1.8584,3.74707,3.0498,1.10352,1.19141,2.03271,2.49805,2.78857,3.9209l-7.93018,3.57324c-.75537-1.45215-1.85156-2.62109-3.28955-3.50781-1.43799-.88574-3.05762-1.3291-4.8584-1.3291-1.27832,0-2.47656,.24023-3.59424,.71973-1.11865,.47852-2.09912,1.13281-2.94141,1.95996-.84277,.82812-1.50293,1.80859-1.98242,2.94141-.479,1.13281-.71875,2.33887-.71875,3.61621,0,1.2793,.23975,2.4834,.71875,3.61719,.47949,1.13281,1.13965,2.1123,1.98242,2.94043,.84229,.82812,1.82275,1.48145,2.94141,1.96094,1.11768,.47949,2.31592,.71875,3.59424,.71875,1.83008,0,3.45654-.44238,4.88037-1.3291,1.42285-.88574,2.51221-2.05469,3.26758-3.50684l7.97363,3.48535Z"/><path class="c" d="M104.80524,39.65023c0-2.43945,.47949-4.72754,1.43799-6.8623s2.2583-4.00098,3.8999-5.59863c1.64062-1.59766,3.55762-2.86133,5.75146-3.79102,2.19287-.92969,4.50928-1.39453,6.94922-1.39453,2.46875,0,4.7998,.46484,6.99365,1.39453,2.19287,.92969,4.10986,2.19336,5.75146,3.79102,1.64062,1.59766,2.93359,3.46387,3.87744,5.59863s1.4165,4.42285,1.4165,6.8623c0,2.44043-.47266,4.72754-1.4165,6.8623-.94385,2.13574-2.23682,4.00195-3.87744,5.59961-1.6416,1.59766-3.55859,2.86133-5.75146,3.79102-2.19385,.92871-4.5249,1.39355-6.99365,1.39355-2.43994,0-4.75635-.46484-6.94922-1.39355-2.19385-.92969-4.11084-2.19336-5.75146-3.79102-1.6416-1.59766-2.94141-3.46387-3.8999-5.59961-.9585-2.13477-1.43799-4.42188-1.43799-6.8623Zm8.80176,0c0,1.2793,.23975,2.4834,.71875,3.61719,.47949,1.13281,1.13965,2.1123,1.98242,2.94043,.84229,.82812,1.82275,1.48145,2.94141,1.96094,1.11768,.47949,2.31592,.71875,3.59424,.71875,1.30762,0,2.52002-.23926,3.63867-.71875,1.11768-.47949,2.09131-1.13281,2.91895-1.96094,.82812-.82812,1.48145-1.80762,1.96094-2.94043,.479-1.13379,.71875-2.33789,.71875-3.61719,0-1.27734-.23975-2.4834-.71875-3.61621-.47949-1.13281-1.13281-2.11328-1.96094-2.94141-.82764-.82715-1.80127-1.48145-2.91895-1.95996-1.11865-.47949-2.33105-.71973-3.63867-.71973-1.27832,0-2.47656,.24023-3.59424,.71973-1.11865,.47852-2.09912,1.13281-2.94141,1.95996-.84277,.82812-1.50293,1.80859-1.98242,2.94141-.479,1.13281-.71875,2.33887-.71875,3.61621Z"/><path class="c" d="M162.40631,22.65804c2.17871,0,4.06641,.32617,5.66455,.97949,1.59717,.6543,2.91943,1.54688,3.96484,2.67969,1.0459,1.13281,1.82275,2.45508,2.33105,3.96582,.50781,1.51074,.7627,3.1084,.7627,4.79199,0,1.19141-.13818,2.35352-.41406,3.48633-.27637,1.13281-.69043,2.18555-1.2417,3.15918-.55225,.97363-1.24951,1.8584-2.09131,2.65723-.84277,.7998-1.83008,1.45996-2.96289,1.98242l7.36328,10.2832h-10.41357l-6.44824-9.10645h-4.44434v9.10645h-8.67091V22.65804h16.60059Zm-7.92969,7.92969v9.0625h7.45068c.87158,0,1.6123-.12305,2.22217-.37012,.60986-.24609,1.10352-.57324,1.48145-.98047,.37695-.40625,.65332-.88574,.82764-1.4375s.26172-1.11816,.26172-1.69922c0-1.30762-.36377-2.39648-1.08936-3.26855-.72656-.87109-1.96094-1.30664-3.70361-1.30664h-7.45068Z"/><path class="c" d="M180.48834,22.65804h26.09961v8.45215h-17.38525v4.87988h14.2915v7.88672h-14.2915v4.35742h17.38525v8.40918h-26.09961V22.65804Z"/></g><polygon class="b" points="56.64301 .51636 56.64301 0 0 0 0 56.64301 .5163 56.64301 56.64301 .51636"/><polygon class="c" points=".065 56.12665 .065 56.64301 56.70801 56.64301 56.70801 0 56.19171 0 .065 56.12665"/><g><circle class="d" cx="28.70034" cy="29.72404" r="7.20835"/><path class="d" d="M28.70039,48.75526c-10.49418,0-19.03155-8.5378-19.03155-19.03155S18.20621,10.69303,28.70039,10.69303s19.03155,8.53693,19.03155,19.03068-8.53737,19.03155-19.03155,19.03155Zm0-35.39052c-9.02092,0-16.35984,7.33849-16.35984,16.35897s7.33893,16.35984,16.35984,16.35984,16.35984-7.33936,16.35984-16.35984-7.33893-16.35897-16.35984-16.35897Z"/></g></g></svg>