<?xml version="1.0" encoding="UTF-8"?><svg id="a" xmlns="http://www.w3.org/2000/svg" viewBox="0 0 132.31256 57.36914"><defs><style>.b{fill:#003778;}.c{fill:#0094ff;}.d{fill:#fff;fill-rule:evenodd;}</style></defs><g><path class="c" d="M89.29449,22.73047l13.72461,33.98535h-9.49854l-1.87354-4.9668h-13.37646l-1.87354,4.9668h-9.49854l13.76855-33.98535h8.62744Zm-4.31396,11.1543l-3.74707,9.97754h7.45068l-3.70361-9.97754Z"/><path class="c" d="M115.65485,22.73047V56.71582h-8.71436V22.73047h8.71436Z"/></g><g><path class="b" d="M74.70319,14.50879c-.96436,0-1.86426-.07129-2.69971-.21387-.83594-.14258-1.56934-.38672-2.20117-.7334s-1.12793-.82812-1.4873-1.44727c-.36035-.61719-.54004-1.39551-.54004-2.33301v-.1123c0-.04688,.00635-.09766,.02002-.15234h4.25928c-.01367,.05469-.02051,.10547-.02051,.15234v.13281c0,.40723,.09521,.7207,.28516,.9375,.19043,.21777,.4585,.36328,.80518,.43848,.34619,.07422,.73682,.11133,1.17188,.11133,.16309,0,.33594-.00293,.51953-.00977s.35986-.02734,.52979-.06152c.16992-.0332,.32617-.08398,.46875-.15234s.25488-.16016,.33643-.27539,.12207-.26172,.12207-.43848c0-.25781-.11572-.46094-.34619-.61133-.23145-.14844-.54395-.27832-.9375-.38672-.39453-.1084-.83545-.21094-1.32471-.30566s-.99854-.20703-1.52832-.33594-1.03955-.2959-1.52832-.5c-.48926-.20312-.93066-.46484-1.32471-.78418s-.70654-.71973-.9375-1.20215-.34619-1.06348-.34619-1.74219c0-.81543,.16943-1.50879,.50928-2.0791,.33936-.57031,.80518-1.03223,1.396-1.38574,.59082-.35254,1.26318-.61133,2.01758-.77441,.75391-.16309,1.54492-.24414,2.37402-.24414,.84229,0,1.6333,.08496,2.37402,.25488,.74023,.16992,1.396,.43066,1.96631,.78418,.5708,.35352,1.01904,.80176,1.34521,1.34473,.32617,.54395,.49561,1.18945,.50928,1.93652v.24414h-4.21826v-.08105c0-.24512-.06104-.47559-.18359-.69336-.12207-.2168-.31543-.39355-.58057-.5293s-.61475-.2041-1.04932-.2041c-.40771,0-.75098,.04102-1.0293,.12207-.27881,.08203-.48584,.19336-.62158,.33594-.13574,.14355-.20361,.2959-.20361,.45898,0,.25781,.11523,.46875,.34619,.63184s.54346,.29883,.9375,.40723c.39404,.10938,.83545,.21094,1.32471,.30566,.48877,.0957,.99854,.20117,1.52832,.31641s1.03906,.26855,1.52832,.45801c.48926,.19043,.93018,.43848,1.32471,.74414,.39355,.30566,.70605,.68262,.9375,1.13086,.23047,.44824,.34619,.99805,.34619,1.65039,0,1.15527-.26855,2.09277-.80469,2.8125-.53711,.71973-1.27051,1.24609-2.20117,1.5791s-1.98682,.49902-3.16895,.49902Z"/><path class="b" d="M84.74957,14.26465V.24414h8.27393c.88281,0,1.66064,.20117,2.33301,.60156,.67285,.40039,1.19921,.9541,1.57959,1.66113,.37988,.70605,.57031,1.52832,.57031,2.46484,0,.96484-.19336,1.80371-.58057,2.51758-.38721,.71289-.91699,1.2666-1.58936,1.66016-.67285,.39453-1.44385,.59082-2.31299,.59082h-3.77002v4.52441h-4.50391Zm4.50391-7.80469h2.26172c.47559,0,.83203-.12207,1.06982-.36719,.23779-.24414,.35693-.60449,.35693-1.08008,0-.32617-.05127-.59375-.15283-.80469-.10205-.21094-.2583-.37012-.46875-.47852-.21094-.10938-.479-.16309-.80518-.16309h-2.26172v2.89355Z"/><path class="b" d="M101.09235,14.26465V.24414h6.07275c1.60303,0,2.94824,.25195,4.03516,.75391,1.08643,.50293,1.91211,1.27051,2.47607,2.30273,.56348,1.0332,.8457,2.35059,.8457,3.9541,0,1.58887-.28223,2.90332-.8457,3.94238-.56396,1.04004-1.38965,1.81055-2.47607,2.31348-1.08691,.50293-2.43213,.75391-4.03516,.75391h-6.07275Zm4.50391-3.3623h1.4873c.48926,0,.91357-.06836,1.27393-.2041,.35986-.13574,.65527-.33301,.88623-.59082s.40088-.57715,.50977-.95801c.1084-.37988,.16309-.80762,.16309-1.2832v-1.22266c0-.47559-.05469-.90332-.16309-1.28418-.10889-.37988-.27881-.69922-.50977-.95801-.23096-.25781-.52637-.45508-.88623-.59082-.36035-.13574-.78467-.2041-1.27393-.2041h-1.4873v7.2959Z"/><path class="b" d="M116.53961,14.26465l5.01318-7.41797L117.02887,.24414h5.44092l2.11914,3.58691h.08154l2.13965-3.58691h5.03369l-4.54443,6.62305,5.01318,7.39746h-5.46143l-2.58838-4.36133h-.08105l-2.58838,4.36133h-5.05371Z"/></g><polygon class="b" points="56.64301 .58939 56.64301 .07303 0 .07303 0 56.71604 .5163 56.71604 56.64301 .58939"/><polygon class="c" points=".065 56.19968 .065 56.71604 56.70801 56.71604 56.70801 .07303 56.19171 .07303 .065 56.19968"/><path class="d" d="M11.31493,29.89354c.23783-.0459,.40985-.25407,.40985-.49641s-.17202-.45053-.40985-.49641c-1.18845-.22653-2.22946-.93634-2.87447-1.95986s-.83608-2.26887-.52765-3.43867,1.08874-2.159,2.15462-2.73155c1.06574-.57241,2.3214-.67664,3.46694-.28769,.20733,.07401,.43881,.00438,.57085-.17174,.13219-.17611,.13417-.41763,.00508-.59598-.66435-.9478-.9379-2.11507-.76406-3.2593,.17371-1.14423,.78171-2.17751,1.69759-2.88521,.91573-.7077,2.06904-1.03552,3.22004-.91505,.27568,.02867,.52255-.17117,.5518-.44669,.12132-1.08776,.77126-2.04572,1.73728-2.56035s2.12367-.51973,3.09422-.0137c.9704,.50603,1.62896,1.4582,1.75988,2.54484v6.94718h-5.18969l-1.21897-2.16662c.31523-.36621,.44503-.85698,.35195-1.33123-.09293-.47425-.39843-.87958-.8286-1.09976-.43017-.22018-.93779-.23077-1.37671-.02867-.4391,.20196-.7611,.59417-.87379,1.06419-.1127,.47002-.00353,.96559,.29602,1.34479,.29969,.37919,.75687,.59981,1.24015,.5988,.10734-.00014,.21453-.01144,.3196-.0339l1.35411,2.40503c.08996,.15874,.25817,.25704,.44077,.2576h5.48508v5.42361h-5.18969l-1.21897-2.16662c.31537-.36636,.44529-.85713,.35223-1.33166-.09293-.47439-.39843-.87987-.82889-1.1002-.43032-.22018-.9379-.23077-1.37714-.02867-.43921,.20196-.76139,.59442-.87408,1.06458-.1127,.47016-.00353,.96588,.2963,1.34522,.29983,.37919,.75712,.59996,1.24055,.5988,.10734,0,.21453-.01116,.3196-.03333l1.35411,2.40445c.08996,.15874,.25817,.25704,.44077,.2576h5.48508v2.32097h-8.57271c-.161-.47667-.53965-.84794-1.01925-.99976-.47963-.15182-1.00287-.06581-1.40878,.23147-.40577,.29729-.64569,.77028-.64569,1.27334s.23995,.97604,.64569,1.27334c.40591,.29729,.92915,.38331,1.40878,.23147,.47963-.15182,.85825-.52313,1.01925-.99976h8.57271v2.32097h-5.48327c-.18261,.00028-.35096,.09872-.44077,.2576l-1.35411,2.40445c-.10507-.02217-.21227-.03333-.3196-.03333-.48625-.00226-.94668,.21891-1.24876,.59996-.30209,.38104-.41253,.87958-.29955,1.35256,.11298,.47284,.43697,.86772,.87875,1.07095,.44163,.20323,.95232,.1925,1.38492-.02938,.43274-.22187,.73962-.63018,.8324-1.10739,.09279-.47735-.0387-.97083-.35675-1.33857l1.21712-2.16663h5.18969v5.42289h-5.48327c-.18261,.00042-.35082,.09872-.44077,.2576l-1.35411,2.40304c-.10507-.02231-.21227-.03361-.3196-.03375-.48625-.00226-.94668,.21891-1.24876,.59996-.30209,.38089-.41253,.87958-.29955,1.35256,.11298,.47284,.43697,.86772,.87875,1.07095,.44163,.20323,.95232,.19236,1.38492-.02938,.43274-.22187,.73962-.63018,.8324-1.10754,.09279-.47721-.0387-.97069-.35675-1.33857l1.21897-2.16663,5.18788,.00014v6.95008c-.13064,1.08664-.7889,2.03896-1.75916,2.54524-.9704,.50646-2.12805,.50151-3.09422-.01285-.96617-.51438-1.61638-1.47205-1.73797-2.55981-.02726-.25662-.24447-.45082-.50237-.44941-.01723,0-.03446,.00085-.05169,.00268-1.15118,.12019-2.30445-.20789-3.22018-.91603-.91559-.70799-1.52332-1.74166-1.69675-2.88604-.17343-1.14452,.10084-2.31179,.76562-3.2593,.12951-.17823,.12767-.42016-.00452-.59656-.13219-.1764-.36394-.24588-.57143-.1716-1.14554,.38881-2.4012,.28458-3.46694-.28783-1.06585-.5724-1.84615-1.56157-2.15462-2.7314-.30845-1.16979-.11736-2.41519,.52765-3.43867,.64501-1.02351,1.68602-1.73331,2.87447-1.95986l.00005,.00032Zm6.49235-13.39543c.15041-.00014,.29461-.06002,.40096-.16651,.10621-.10649,.16594-.25068,.1658-.40125-.00014-.15041-.06002-.29461-.16651-.40096-.10649-.10621-.25083-.16594-.40125-.1658-.15041,.00014-.29461,.06002-.40096,.16651-.10621,.10649-.16594,.25083-.1658,.40125,.00085,.15013,.06101,.29404,.16722,.40009,.10635,.10621,.25026,.16609,.40053,.16665l.00002,.00002Zm0,6.43342c.15055,0,.29489-.05988,.40139-.16637,.10649-.10635,.16623-.25083,.16623-.40139,0-.15055-.05974-.29489-.16623-.40139-.10649-.10649-.25083-.16623-.40139-.16623s-.29503,.05974-.4015,.16623c-.10635,.10649-.16623,.25083-.16623,.40139,.00085,.15027,.06101,.29418,.16722,.40038,.10635,.10621,.25026,.16609,.40053,.16679v.00059Zm-1.89815,6.46524c.00014-.1507-.0596-.29532-.16609-.40194-.10649-.10663-.25097-.16651-.40165-.16665-.15069-.00014-.29531,.05974-.40194,.16623-.10649,.10649-.16651,.25111-.16651,.40179s.05974,.29517,.16637,.40179c.10649,.10663,.25111,.16637,.40179,.16637,.15055,.00014,.29517-.0596,.40165-.16609,.10663-.10649,.16637-.25083,.16637-.4015h0Zm2.46617,7.03323c0-.15055-.05974-.29503-.16623-.40139-.10649-.10649-.25083-.16637-.40139-.16637-.15055,0-.29503,.05988-.40139,.16637-.10649,.10635-.16637,.25083-.16637,.40139,0,.15055,.05988,.29489,.16637,.40139,.10635,.10649,.25083,.16623,.40139,.16623,.15027-.00085,.29404-.06087,.40024-.16722,.10621-.10621,.16623-.25012,.16693-.40038l.00045-.00003Zm0,6.43306v-.00014c0-.15055-.05974-.29489-.16623-.40139-.10649-.10649-.25083-.16623-.40139-.16623-.15055,0-.29503,.05974-.40139,.16623-.10649,.10649-.16637,.25083-.16637,.40139s.05988,.29503,.16637,.4015c.10635,.10635,.25083,.16623,.40139,.16623,.15041-.00056,.29446-.06059,.40067-.16693,.10635-.10635,.16637-.2504,.16693-.40081l.00002,.00016Zm30.49819-9.66966l-3.54207,.82209-.00014-.00014c-.17484,.04223-.3148,.17286-.36889,.34432-.3148,1.03819-.73116,2.04276-1.24326,2.99917-.08445,.15959-.07683,.35223,.0202,.50461l1.92171,3.08731-5.37336,5.37155-3.08503-1.92229c-.15309-.09533-.34531-.10197-.50461-.01737-.95796,.51084-1.9634,.92745-3.00184,1.24409-.17145,.0531-.30138,.19349-.34121,.36846l-.82437,3.54164h-3.2918v-10.75828c2.40051-.12979,4.66002-1.17489,6.31339-2.92009s2.57492-4.05768,2.57492-6.46198-.92152-4.71678-2.57492-6.46198c-1.65337-1.7452-3.91306-2.7903-6.31339-2.92009V9.25612h3.2918l.82621,3.54037v-.00014c.03969,.17513,.16962,.31579,.34121,.36903,1.03819,.3172,2.04348,.73355,3.00184,1.24355,.15916,.08502,.35152,.07853,.50461-.01681l3.08319-1.92146,5.37444,5.37119-1.92186,3.0859c-.09688,.15239-.10451,.34503-.02005,.50462,.51166,.95655,.92803,1.96112,1.24312,2.99917,.05409,.1716,.19405,.30223,.36904,.34432l3.54207,.82209-.00094,7.59545Z"/></svg>