<?xml version="1.0" encoding="UTF-8"?><svg id="a" xmlns="http://www.w3.org/2000/svg" viewBox="0 0 172.34349 56.71625"><defs><style>.b{fill:#fff;}.b,.c,.d{stroke-width:0px;}.c{fill:#003778;}.d{fill:#0094ff;}</style></defs><path class="d" d="m69.29808,22.7309h8.6709v25.57617h16.29541v8.40918h-24.96631V22.7309Z"/><path class="d" d="m107.46654,22.7309v33.98535h-8.71436V22.7309h8.71436Z"/><path class="d" d="m111.91038,22.7309h29.89014v8.45215h-10.58789v25.5332h-8.71436v-25.5332h-10.58789v-8.45215Z"/><path class="d" d="m146.24388,22.7309h26.09961v8.45215h-17.38525v4.87988h14.2915v7.88672h-14.2915v4.35742h17.38525v8.40918h-26.09961V22.7309Z"/><path class="c" d="m75.23092,14.50879c-.96436,0-1.86426-.07129-2.69971-.21387-.83594-.14258-1.56934-.38672-2.20117-.7334s-1.12793-.82812-1.4873-1.44727c-.36035-.61719-.54004-1.39551-.54004-2.33301v-.1123c0-.04688.00635-.09766.02002-.15234h4.25928c-.01367.05469-.02051.10547-.02051.15234v.13281c0,.40723.09521.7207.28516.9375.19043.21777.4585.36328.80518.43848.34619.07422.73682.11133,1.17188.11133.16309,0,.33594-.00293.51953-.00977s.35986-.02734.52979-.06152c.16992-.0332.32617-.08398.46875-.15234s.25488-.16016.33643-.27539.12207-.26172.12207-.43848c0-.25781-.11572-.46094-.34619-.61133-.23145-.14844-.54395-.27832-.9375-.38672-.39453-.1084-.83545-.21094-1.32471-.30566s-.99854-.20703-1.52832-.33594-1.03955-.2959-1.52832-.5c-.48926-.20312-.93066-.46484-1.32471-.78418s-.70654-.71973-.9375-1.20215-.34619-1.06348-.34619-1.74219c0-.81543.16943-1.50879.50928-2.0791.33936-.57031.80518-1.03223,1.396-1.38574.59082-.35254,1.26318-.61133,2.01758-.77441.75391-.16309,1.54492-.24414,2.37402-.24414.84229,0,1.6333.08496,2.37402.25488.74023.16992,1.396.43066,1.96631.78418.5708.35352,1.01904.80176,1.34521,1.34473.32617.54395.49561,1.18945.50928,1.93652v.24414h-4.21826v-.08105c0-.24512-.06104-.47559-.18359-.69336-.12207-.2168-.31543-.39355-.58057-.5293s-.61475-.2041-1.04932-.2041c-.40771,0-.75098.04102-1.0293.12207-.27881.08203-.48584.19336-.62158.33594-.13574.14355-.20361.2959-.20361.45898,0,.25781.11523.46875.34619.63184s.54346.29883.9375.40723c.39404.10938.83545.21094,1.32471.30566.48877.0957.99854.20117,1.52832.31641s1.03906.26855,1.52832.45801c.48926.19043.93018.43848,1.32471.74414.39355.30566.70605.68262.9375,1.13086.23047.44824.34619.99805.34619,1.65039,0,1.15527-.26855,2.09277-.80469,2.8125-.53711.71973-1.27051,1.24609-2.20117,1.5791s-1.98682.49902-3.16895.49902Z"/><path class="c" d="m85.27731,14.26465V.24414h8.27393c.88281,0,1.66064.20117,2.33301.60156.67285.40039,1.19921.9541,1.57959,1.66113.37988.70605.57031,1.52832.57031,2.46484,0,.96484-.19336,1.80371-.58057,2.51758-.38721.71289-.91699,1.2666-1.58936,1.66016-.67285.39453-1.44385.59082-2.31299.59082h-3.77002v4.52441h-4.50391Zm4.50391-7.80469h2.26172c.47559,0,.83203-.12207,1.06982-.36719.23779-.24414.35693-.60449.35693-1.08008,0-.32617-.05127-.59375-.15283-.80469-.10205-.21094-.2583-.37012-.46875-.47852-.21094-.10938-.479-.16309-.80518-.16309h-2.26172v2.89355Z"/><path class="c" d="m101.62008,14.26465V.24414h6.07275c1.60303,0,2.94824.25195,4.03516.75391,1.08643.50293,1.91211,1.27051,2.47607,2.30273.56348,1.0332.8457,2.35059.8457,3.9541,0,1.58887-.28223,2.90332-.8457,3.94238-.56396,1.04004-1.38965,1.81055-2.47607,2.31348-1.08691.50293-2.43213.75391-4.03516.75391h-6.07275Zm4.50391-3.3623h1.4873c.48926,0,.91357-.06836,1.27393-.2041.35986-.13574.65527-.33301.88623-.59082s.40088-.57715.50977-.95801c.1084-.37988.16309-.80762.16309-1.2832v-1.22266c0-.47559-.05469-.90332-.16309-1.28418-.10889-.37988-.27881-.69922-.50977-.95801-.23096-.25781-.52637-.45508-.88623-.59082-.36035-.13574-.78467-.2041-1.27393-.2041h-1.4873v7.2959Z"/><path class="c" d="m117.06735,14.26465l5.01318-7.41797L117.55661.24414h5.44092l2.11914,3.58691h.08154l2.13965-3.58691h5.03369l-4.54443,6.62305,5.01318,7.39746h-5.46143l-2.58838-4.36133h-.08105l-2.58838,4.36133h-5.05371Z"/><polygon class="c" points="57.23575 .07303 56.64301 .07303 0 .07303 0 56.71604 .5163 56.71604 57.23575 .07303"/><polygon class="d" points="0 56.71604 57.23575 56.71604 57.23575 .07303 0 56.71604"/><path class="b" d="m52.40843,29.66859l-11.4897,2.68783L12.69469,15.93805l39.71374,13.73053Zm-12.76792,5.9206l-6.12192,5.78573,4.93147,5.16919,1.19044-10.95492ZM6.44769,14.34992l16.60148,34.48716,16.26238-15.36944L6.44769,14.34992Z"/></svg>