<?xml version="1.0" encoding="UTF-8"?><svg id="a" xmlns="http://www.w3.org/2000/svg" viewBox="0 0 348.80377 56.75342"><defs><style>.b{fill:#003778;}.c{fill:#0094ff;}.d{fill:#fff;}</style></defs><g><path class="c" d="M76.65875,45.59766v.21777c0,.31934,.11572,.66113,.34814,1.02344,.23242,.36328,.58105,.69727,1.0459,1.00195,.46436,.30566,1.06006,.55957,1.78662,.7627,.72559,.2041,1.58252,.30469,2.57031,.30469,1.62646,0,2.75195-.22461,3.37695-.6748,.62451-.4502,.93701-.92188,.93701-1.41602,0-.72559-.45068-1.35059-1.35107-1.87402-.90039-.52246-2.38184-1.13281-4.44385-1.83008-1.36572-.43555-2.78223-.95117-4.24854-1.54688-1.46729-.59473-2.81006-1.32812-4.03027-2.2002-1.22021-.87109-2.22949-1.93066-3.02832-3.18066-.79932-1.24805-1.19824-2.74512-1.19824-4.4873,0-1.62695,.32666-3.08594,.98047-4.37891s1.56836-2.39648,2.74512-3.31152c1.17627-.91504,2.57764-1.61914,4.20459-2.11328,1.62646-.49414,3.4126-.74121,5.35938-.74121,1.9751,0,3.8125,.25488,5.51172,.7627,1.69922,.50879,3.16553,1.24219,4.40088,2.2002,1.23389,.95898,2.20703,2.11328,2.91895,3.46387,.71143,1.35059,1.06787,2.86914,1.06787,4.55371v.47949h-8.49658v-.30566c0-.40625-.10889-.82715-.32666-1.26367-.21826-.43555-.54492-.82715-.98047-1.17578-.43604-.34863-.98047-.63184-1.63428-.84961-.65332-.21777-1.41602-.32715-2.28711-.32715-1.48145,0-2.54248,.23926-3.18066,.71875-.63965,.47949-.95898,1.00977-.95898,1.59082,0,.66797,.42822,1.23438,1.28564,1.69922,.85645,.46484,2.30176,1.0459,4.33545,1.74316,1.16113,.40625,2.4834,.9082,3.96484,1.50293,1.48145,.5957,2.86816,1.35059,4.16113,2.26562,1.29199,.91504,2.38135,2.0332,3.26758,3.35449,.88574,1.32227,1.3291,2.91309,1.3291,4.77148,0,1.65625-.3418,3.11523-1.02393,4.37891-.68262,1.26367-1.62695,2.31641-2.83203,3.15918-1.20557,.84277-2.62939,1.48145-4.27002,1.91699-1.6416,.43555-3.43555,.65332-5.38135,.65332-2.0332,0-3.92871-.23242-5.68604-.69727-1.75781-.46387-3.28271-1.13965-4.57471-2.02539-1.29297-.88574-2.30957-1.98242-3.05029-3.29004-.74072-1.30664-1.11084-2.78809-1.11084-4.44434v-.3916h8.49658Z"/><path class="c" d="M99.66364,38.7998c0-2.43945,.47949-4.72754,1.43799-6.8623s2.2583-4.00098,3.8999-5.59863c1.64062-1.59766,3.55762-2.86133,5.75146-3.79102,2.19287-.92969,4.50928-1.39453,6.94922-1.39453,2.46875,0,4.7998,.46484,6.99365,1.39453,2.19287,.92969,4.10986,2.19336,5.75146,3.79102,1.64062,1.59766,2.93359,3.46387,3.87744,5.59863s1.4165,4.42285,1.4165,6.8623c0,2.44043-.47266,4.72754-1.4165,6.8623-.94385,2.13574-2.23682,4.00195-3.87744,5.59961-1.64161,1.59766-3.55859,2.86133-5.75146,3.79102-2.19385,.92871-4.5249,1.39355-6.99365,1.39355-2.43994,0-4.75635-.46484-6.94922-1.39355-2.19385-.92969-4.11084-2.19336-5.75146-3.79102-1.6416-1.59766-2.94141-3.46387-3.8999-5.59961-.9585-2.13477-1.43799-4.42188-1.43799-6.8623Zm8.80176,0c0,1.2793,.23975,2.4834,.71875,3.61719,.47949,1.13281,1.13965,2.1123,1.98242,2.94043,.84229,.82812,1.82275,1.48145,2.94141,1.96094,1.11768,.47949,2.31592,.71875,3.59424,.71875,1.30762,0,2.52002-.23926,3.63867-.71875,1.11768-.47949,2.09131-1.13281,2.91895-1.96094,.82812-.82812,1.48145-1.80762,1.96094-2.94043,.479-1.13379,.71875-2.33789,.71875-3.61719,0-1.27734-.23975-2.4834-.71875-3.61621-.47949-1.13281-1.13281-2.11328-1.96094-2.94141-.82764-.82715-1.80127-1.48145-2.91895-1.95996-1.11865-.47949-2.33105-.71973-3.63867-.71973-1.27832,0-2.47656,.24023-3.59424,.71973-1.11865,.47852-2.09912,1.13281-2.94141,1.95996-.84277,.82812-1.50293,1.80859-1.98242,2.94141-.479,1.13281-.71875,2.33887-.71875,3.61621Z"/><path class="c" d="M140.66412,21.80762h25.22803v8.45215h-16.55713v6.0127h13.89941v7.88672h-13.89941v11.63379h-8.6709V21.80762Z"/><path class="c" d="M168.85455,21.80762h29.89014v8.45215h-10.58789v25.5332h-8.71436V30.25977h-10.58789v-8.45215Z"/><path class="c" d="M210.07233,55.79297l-9.54199-33.98535h9.28076l5.48975,20.26074,6.36133-20.26074h7.75586l6.36133,20.2168,5.49023-20.2168h9.32422l-9.54199,33.98535h-9.01953l-6.49219-19.73828-6.44824,19.73828h-9.01953Z"/><path class="c" d="M270.37604,21.80762l13.72461,33.98535h-9.49854l-1.87354-4.9668h-13.37646l-1.87354,4.9668h-9.49854l13.76855-33.98535h8.62744Zm-4.31396,11.1543l-3.74707,9.97754h7.45068l-3.70361-9.97754Z"/><path class="c" d="M304.62262,21.80762c2.17871,0,4.06641,.32617,5.66455,.97949,1.59717,.6543,2.91943,1.54688,3.96484,2.67969,1.0459,1.13281,1.82275,2.45508,2.33105,3.96582,.50781,1.51074,.7627,3.1084,.7627,4.79199,0,1.19141-.13818,2.35352-.41406,3.48633-.27637,1.13281-.69043,2.18555-1.2417,3.15918-.55225,.97363-1.24951,1.8584-2.09131,2.65723-.84277,.7998-1.83008,1.45996-2.96289,1.98242l7.36328,10.2832h-10.41357l-6.44824-9.10645h-4.44434v9.10645h-8.6709V21.80762h16.60059Zm-7.92969,7.92969v9.0625h7.45068c.87158,0,1.6123-.12305,2.22217-.37012,.60986-.24609,1.10352-.57324,1.48145-.98047,.37695-.40625,.65332-.88574,.82764-1.4375s.26172-1.11816,.26172-1.69922c0-1.30762-.36377-2.39648-1.08936-3.26855-.72656-.87109-1.96094-1.30664-3.70361-1.30664h-7.45068Z"/><path class="c" d="M322.70416,21.80762h26.09961v8.45215h-17.38525v4.87988h14.2915v7.88672h-14.2915v4.35742h17.38525v8.40918h-26.09961V21.80762Z"/></g><g><path class="b" d="M74.70319,14.50879c-.96436,0-1.86426-.07129-2.69971-.21387-.83594-.14258-1.56934-.38672-2.20117-.7334s-1.12793-.82812-1.4873-1.44727c-.36035-.61719-.54004-1.39551-.54004-2.33301v-.1123c0-.04688,.00635-.09766,.02002-.15234h4.25928c-.01367,.05469-.02051,.10547-.02051,.15234v.13281c0,.40723,.09521,.7207,.28516,.9375,.19043,.21777,.4585,.36328,.80518,.43848,.34619,.07422,.73682,.11133,1.17188,.11133,.16309,0,.33594-.00293,.51953-.00977s.35986-.02734,.52979-.06152c.16992-.0332,.32617-.08398,.46875-.15234s.25488-.16016,.33643-.27539,.12207-.26172,.12207-.43848c0-.25781-.11572-.46094-.34619-.61133-.23145-.14844-.54395-.27832-.9375-.38672-.39453-.1084-.83545-.21094-1.32471-.30566s-.99854-.20703-1.52832-.33594-1.03955-.2959-1.52832-.5c-.48926-.20312-.93066-.46484-1.32471-.78418s-.70654-.71973-.9375-1.20215-.34619-1.06348-.34619-1.74219c0-.81543,.16943-1.50879,.50928-2.0791,.33936-.57031,.80518-1.03223,1.396-1.38574,.59082-.35254,1.26318-.61133,2.01758-.77441,.75391-.16309,1.54492-.24414,2.37402-.24414,.84229,0,1.6333,.08496,2.37402,.25488,.74023,.16992,1.396,.43066,1.96631,.78418,.5708,.35352,1.01904,.80176,1.34521,1.34473,.32617,.54395,.49561,1.18945,.50928,1.93652v.24414h-4.21826v-.08105c0-.24512-.06104-.47559-.18359-.69336-.12207-.2168-.31543-.39355-.58057-.5293s-.61475-.2041-1.04932-.2041c-.40771,0-.75098,.04102-1.0293,.12207-.27881,.08203-.48584,.19336-.62158,.33594-.13574,.14355-.20361,.2959-.20361,.45898,0,.25781,.11523,.46875,.34619,.63184s.54346,.29883,.9375,.40723c.39404,.10938,.83545,.21094,1.32471,.30566,.48877,.0957,.99854,.20117,1.52832,.31641s1.03906,.26855,1.52832,.45801c.48926,.19043,.93018,.43848,1.32471,.74414,.39355,.30566,.70605,.68262,.9375,1.13086,.23047,.44824,.34619,.99805,.34619,1.65039,0,1.15527-.26855,2.09277-.80469,2.8125-.53711,.71973-1.27051,1.24609-2.20117,1.5791s-1.98682,.49902-3.16895,.49902Z"/><path class="b" d="M84.74957,14.26465V.24414h8.27393c.88281,0,1.66064,.20117,2.33301,.60156,.67285,.40039,1.19921,.9541,1.57959,1.66113,.37988,.70605,.57031,1.52832,.57031,2.46484,0,.96484-.19336,1.80371-.58057,2.51758-.38721,.71289-.91699,1.2666-1.58936,1.66016-.67285,.39453-1.44385,.59082-2.31299,.59082h-3.77002v4.52441h-4.50391Zm4.50391-7.80469h2.26172c.47559,0,.83203-.12207,1.06982-.36719,.23779-.24414,.35693-.60449,.35693-1.08008,0-.32617-.05127-.59375-.15283-.80469-.10205-.21094-.2583-.37012-.46875-.47852-.21094-.10938-.479-.16309-.80518-.16309h-2.26172v2.89355Z"/><path class="b" d="M101.09235,14.26465V.24414h6.07275c1.60303,0,2.94824,.25195,4.03516,.75391,1.08643,.50293,1.91211,1.27051,2.47607,2.30273,.56348,1.0332,.8457,2.35059,.8457,3.9541,0,1.58887-.28223,2.90332-.8457,3.94238-.56396,1.04004-1.38965,1.81055-2.47607,2.31348-1.08691,.50293-2.43213,.75391-4.03516,.75391h-6.07275Zm4.50391-3.3623h1.4873c.48926,0,.91357-.06836,1.27393-.2041,.35986-.13574,.65527-.33301,.88623-.59082s.40088-.57715,.50977-.95801c.1084-.37988,.16309-.80762,.16309-1.2832v-1.22266c0-.47559-.05469-.90332-.16309-1.28418-.10889-.37988-.27881-.69922-.50977-.95801-.23096-.25781-.52637-.45508-.88623-.59082-.36035-.13574-.78467-.2041-1.27393-.2041h-1.4873v7.2959Z"/><path class="b" d="M116.53961,14.26465l5.01318-7.41797L117.02887,.24414h5.44092l2.11914,3.58691h.08154l2.13965-3.58691h5.03369l-4.54443,6.62305,5.01318,7.39746h-5.46143l-2.58838-4.36133h-.08105l-2.58838,4.36133h-5.05371Z"/></g><polygon class="b" points="56.64301 .62677 56.64301 .11042 0 .11042 0 56.75342 .5163 56.75342 56.64301 .62677"/><polygon class="c" points=".065 56.23706 .065 56.75342 56.70801 56.75342 56.70801 .11042 56.19171 .11042 .065 56.23706"/><path class="d" d="M26.26269,43.39556c-.2269,.74824-1.02449,1.17458-1.77261,.94816l-1.81396-.54974c-.74824-.2269-1.17458-1.02449-.94816-1.77261L30.38036,13.46828c.2269-.74824,1.02449-1.17458,1.77261-.94816l1.81396,.54974c.74824,.2269,1.17458,1.02449,.94816,1.77261l-8.65241,28.55309Zm-5.80104-6.20026c.50038,.6008,.41848,1.50157-.18201,2.00243l-1.45609,1.21344c-.6008,.50085-1.50157,.41892-2.00195-.18201L7.59702,29.15975c-.33363-.40044-.33363-1.05565,0-1.45561l9.22536-11.06901c.50038-.6008,1.40163-.68238,2.00195-.18201l1.45561,1.21344c.6008,.50085,.68238,1.40163,.18201,2.00243l-7.30353,8.76297,7.30321,8.76335Zm23.02293-8.76336l-7.30353-8.76336c-.50038-.6008-.41848-1.50157,.18201-2.00243l1.45561-1.21344c.6008-.50085,1.50157-.41892,2.00195,.18201l9.22536,11.06901c.33363,.40044,.33363,1.05565,0,1.45561l-9.22457,11.06901c-.50038,.6008-1.40163,.68238-2.00195,.18201l-1.45609-1.21344c-.6008-.50085-.68238-1.40163-.18201-2.00243l7.30321-8.76256Z"/></svg>