<?xml version="1.0" encoding="UTF-8"?><svg id="a" xmlns="http://www.w3.org/2000/svg" viewBox="0 0 335.16901 57.36816"><defs><style>.b{fill:#003778;}.c{fill:#0094ff;}.d{fill:#fff;}</style></defs><g><path class="c" d="M67.51276,22.72949h8.6709v25.57617h16.29541v8.40918h-24.96631V22.72949Z"/><path class="c" d="M105.68121,22.72949V56.71484h-8.71436V22.72949h8.71436Z"/><path class="c" d="M144.76422,47.6084c-.75537,1.45312-1.68506,2.77441-2.78857,3.96484-1.104,1.19141-2.35254,2.21582-3.74707,3.07227-1.39404,.85645-2.90479,1.52441-4.53125,2.00391-1.62744,.47949-3.31152,.71875-5.05469,.71875-2.43994,0-4.75635-.46484-6.94922-1.39355-2.19385-.92969-4.11084-2.19336-5.75146-3.79102-1.6416-1.59766-2.94141-3.46387-3.8999-5.59961-.9585-2.13477-1.43799-4.42188-1.43799-6.8623,0-2.43945,.47949-4.72754,1.43799-6.8623s2.2583-4.00098,3.8999-5.59863c1.64062-1.59766,3.55762-2.86133,5.75146-3.79102,2.19287-.92969,4.50928-1.39453,6.94922-1.39453,1.74316,0,3.42041,.24023,5.03271,.71875,1.6123,.47949,3.11523,1.14062,4.50977,1.9834,1.39404,.84277,2.64258,1.8584,3.74707,3.0498,1.10352,1.19141,2.03271,2.49805,2.78857,3.9209l-7.93018,3.57324c-.75537-1.45215-1.85156-2.62109-3.28955-3.50781-1.43799-.88574-3.05762-1.3291-4.8584-1.3291-1.27832,0-2.47656,.24023-3.59424,.71973-1.11865,.47852-2.09912,1.13281-2.94141,1.95996-.84277,.82812-1.50293,1.80859-1.98242,2.94141-.479,1.13281-.71875,2.33887-.71875,3.61621,0,1.2793,.23975,2.4834,.71875,3.61719,.47949,1.13281,1.13965,2.1123,1.98242,2.94043,.84229,.82812,1.82275,1.48145,2.94141,1.96094,1.11768,.47949,2.31592,.71875,3.59424,.71875,1.83008,0,3.45654-.44238,4.88037-1.3291,1.42285-.88574,2.51221-2.05469,3.26758-3.50684l7.97363,3.48535Z"/><path class="c" d="M149.12115,22.72949h26.09961v8.45215h-17.38525v4.87988h14.2915v7.88672h-14.2915v4.35742h17.38525v8.40918h-26.09961V22.72949Z"/><path class="c" d="M180.75397,56.71484V22.72949h7.40723l15.16309,18.99707V22.72949h8.67041V56.71484h-7.36328l-15.16309-18.95312v18.95312h-8.71436Z"/><path class="c" d="M225.67584,46.51953v.21777c0,.31934,.11572,.66113,.34814,1.02344,.23242,.36328,.58105,.69727,1.0459,1.00195,.46436,.30566,1.06006,.55957,1.78662,.7627,.72559,.2041,1.58252,.30469,2.57031,.30469,1.62646,0,2.75195-.22461,3.37695-.6748,.62451-.4502,.93701-.92188,.93701-1.41602,0-.72559-.45068-1.35059-1.35107-1.87402-.90039-.52246-2.38184-1.13281-4.44385-1.83008-1.36572-.43555-2.78223-.95117-4.24854-1.54688-1.46729-.59473-2.81006-1.32812-4.03027-2.2002-1.22021-.87109-2.22949-1.93066-3.02832-3.18066-.79932-1.24805-1.19824-2.74512-1.19824-4.4873,0-1.62695,.32666-3.08594,.98047-4.37891s1.56836-2.39648,2.74512-3.31152c1.17627-.91504,2.57764-1.61914,4.20459-2.11328,1.62646-.49414,3.4126-.74121,5.35938-.74121,1.9751,0,3.8125,.25488,5.51172,.7627,1.69922,.50879,3.16553,1.24219,4.40088,2.2002,1.23389,.95898,2.20703,2.11328,2.91895,3.46387,.71143,1.35059,1.06787,2.86914,1.06787,4.55371v.47949h-8.49658v-.30566c0-.40625-.10889-.82715-.32666-1.26367-.21826-.43555-.54492-.82715-.98047-1.17578-.43604-.34863-.98047-.63184-1.63428-.84961-.65332-.21777-1.41602-.32715-2.28711-.32715-1.48145,0-2.54248,.23926-3.18066,.71875-.63965,.47949-.95898,1.00977-.95898,1.59082,0,.66797,.42822,1.23438,1.28564,1.69922,.85645,.46484,2.30176,1.0459,4.33545,1.74316,1.16113,.40625,2.4834,.9082,3.96484,1.50293,1.48145,.5957,2.86816,1.35059,4.16113,2.26562,1.29199,.91504,2.38135,2.0332,3.26758,3.35449,.88574,1.32227,1.3291,2.91309,1.3291,4.77148,0,1.65625-.3418,3.11523-1.02393,4.37891-.68262,1.26367-1.62695,2.31641-2.83203,3.15918-1.20557,.84277-2.62939,1.48145-4.27002,1.91699-1.6416,.43555-3.43555,.65332-5.38135,.65332-2.0332,0-3.92871-.23242-5.68604-.69727-1.75781-.46387-3.28271-1.13965-4.57471-2.02539-1.29297-.88574-2.30957-1.98242-3.05029-3.29004-.74072-1.30664-1.11084-2.78809-1.11084-4.44434v-.3916h8.49658Z"/><path class="c" d="M259.00739,22.72949V56.71484h-8.71436V22.72949h8.71436Z"/><path class="c" d="M265.54254,56.71484V22.72949h7.40723l15.16309,18.99707V22.72949h8.67041V56.71484h-7.36328l-15.16309-18.95312v18.95312h-8.71436Z"/><path class="c" d="M318.78619,36.88965h16.38281v19.8252h-6.84033v-3.18066c-.84277,1.27832-2.04785,2.2373-3.6167,2.87598-1.56836,.63867-3.22412,.95801-4.96729,.95801-2.46924,0-4.79248-.46484-6.97119-1.39355-2.17871-.92969-4.08887-2.19336-5.72949-3.79102-1.6416-1.59766-2.94141-3.46387-3.8999-5.59961-.9585-2.13477-1.43799-4.42188-1.43799-6.8623,0-2.43945,.47949-4.72754,1.43799-6.8623s2.2583-4.00098,3.8999-5.59863c1.64062-1.59766,3.55078-2.86133,5.72949-3.79102s4.50195-1.39453,6.97119-1.39453c2.93359,0,5.64941,.64746,8.14795,1.93945,2.49805,1.29297,4.5752,3.01367,6.23096,5.16309l-7.10205,4.79297c-.84326-1.07422-1.89551-1.92383-3.15918-2.54883s-2.63623-.9375-4.11768-.9375c-1.27832,0-2.4834,.24023-3.61621,.71973-1.13281,.47852-2.11328,1.13281-2.94092,1.95996-.82812,.82812-1.48145,1.80859-1.96094,2.94141-.479,1.13281-.71875,2.33887-.71875,3.61621,0,1.2793,.23975,2.4834,.71875,3.61719,.47949,1.13281,1.13281,2.1123,1.96094,2.94043,.82764,.82812,1.80811,1.48145,2.94092,1.96094s2.33789,.71875,3.61621,.71875c1.53955,0,2.93359-.34863,4.18311-1.0459,1.24854-.69727,2.27979-1.64062,3.09375-2.83203v-.95801h-8.23535v-7.2334Z"/></g><g><path class="b" d="M74.70319,14.50879c-.96436,0-1.86426-.07129-2.69971-.21387-.83594-.14258-1.56934-.38672-2.20117-.7334s-1.12793-.82812-1.4873-1.44727c-.36035-.61719-.54004-1.39551-.54004-2.33301v-.1123c0-.04688,.00635-.09766,.02002-.15234h4.25928c-.01367,.05469-.02051,.10547-.02051,.15234v.13281c0,.40723,.09521,.7207,.28516,.9375,.19043,.21777,.4585,.36328,.80518,.43848,.34619,.07422,.73682,.11133,1.17188,.11133,.16309,0,.33594-.00293,.51953-.00977s.35986-.02734,.52979-.06152c.16992-.0332,.32617-.08398,.46875-.15234s.25488-.16016,.33643-.27539,.12207-.26172,.12207-.43848c0-.25781-.11572-.46094-.34619-.61133-.23145-.14844-.54395-.27832-.9375-.38672-.39453-.1084-.83545-.21094-1.32471-.30566s-.99854-.20703-1.52832-.33594-1.03955-.2959-1.52832-.5c-.48926-.20312-.93066-.46484-1.32471-.78418s-.70654-.71973-.9375-1.20215-.34619-1.06348-.34619-1.74219c0-.81543,.16943-1.50879,.50928-2.0791,.33936-.57031,.80518-1.03223,1.396-1.38574,.59082-.35254,1.26318-.61133,2.01758-.77441,.75391-.16309,1.54492-.24414,2.37402-.24414,.84229,0,1.6333,.08496,2.37402,.25488,.74023,.16992,1.396,.43066,1.96631,.78418,.5708,.35352,1.01904,.80176,1.34521,1.34473,.32617,.54395,.49561,1.18945,.50928,1.93652v.24414h-4.21826v-.08105c0-.24512-.06104-.47559-.18359-.69336-.12207-.2168-.31543-.39355-.58057-.5293s-.61475-.2041-1.04932-.2041c-.40771,0-.75098,.04102-1.0293,.12207-.27881,.08203-.48584,.19336-.62158,.33594-.13574,.14355-.20361,.2959-.20361,.45898,0,.25781,.11523,.46875,.34619,.63184s.54346,.29883,.9375,.40723c.39404,.10938,.83545,.21094,1.32471,.30566,.48877,.0957,.99854,.20117,1.52832,.31641s1.03906,.26855,1.52832,.45801c.48926,.19043,.93018,.43848,1.32471,.74414,.39355,.30566,.70605,.68262,.9375,1.13086,.23047,.44824,.34619,.99805,.34619,1.65039,0,1.15527-.26855,2.09277-.80469,2.8125-.53711,.71973-1.27051,1.24609-2.20117,1.5791s-1.98682,.49902-3.16895,.49902Z"/><path class="b" d="M84.74957,14.26465V.24414h8.27393c.88281,0,1.66064,.20117,2.33301,.60156,.67285,.40039,1.19921,.9541,1.57959,1.66113,.37988,.70605,.57031,1.52832,.57031,2.46484,0,.96484-.19336,1.80371-.58057,2.51758-.38721,.71289-.91699,1.2666-1.58936,1.66016-.67285,.39453-1.44385,.59082-2.31299,.59082h-3.77002v4.52441h-4.50391Zm4.50391-7.80469h2.26172c.47559,0,.83203-.12207,1.06982-.36719,.23779-.24414,.35693-.60449,.35693-1.08008,0-.32617-.05127-.59375-.15283-.80469-.10205-.21094-.2583-.37012-.46875-.47852-.21094-.10938-.479-.16309-.80518-.16309h-2.26172v2.89355Z"/><path class="b" d="M101.09235,14.26465V.24414h6.07275c1.60303,0,2.94824,.25195,4.03516,.75391,1.08643,.50293,1.91211,1.27051,2.47607,2.30273,.56348,1.0332,.8457,2.35059,.8457,3.9541,0,1.58887-.28223,2.90332-.8457,3.94238-.56396,1.04004-1.38965,1.81055-2.47607,2.31348-1.08691,.50293-2.43213,.75391-4.03516,.75391h-6.07275Zm4.50391-3.3623h1.4873c.48926,0,.91357-.06836,1.27393-.2041,.35986-.13574,.65527-.33301,.88623-.59082s.40088-.57715,.50977-.95801c.1084-.37988,.16309-.80762,.16309-1.2832v-1.22266c0-.47559-.05469-.90332-.16309-1.28418-.10889-.37988-.27881-.69922-.50977-.95801-.23096-.25781-.52637-.45508-.88623-.59082-.36035-.13574-.78467-.2041-1.27393-.2041h-1.4873v7.2959Z"/><path class="b" d="M116.53961,14.26465l5.01318-7.41797L117.02887,.24414h5.44092l2.11914,3.58691h.08154l2.13965-3.58691h5.03369l-4.54443,6.62305,5.01318,7.39746h-5.46143l-2.58838-4.36133h-.08105l-2.58838,4.36133h-5.05371Z"/></g><polygon class="b" points="56.64301 .58894 56.64301 .07259 0 .07259 0 56.71559 .5163 56.71559 56.64301 .58894"/><polygon class="c" points=".065 56.19923 .065 56.71559 56.70801 56.71559 56.70801 .07259 56.19171 .07259 .065 56.19923"/><path class="d" d="M13.27763,40.94898h6.37707v6.37707l-6.37707-6.37707ZM43.83468,14.53011v28.65776c0,2.71633-2.20923,4.92555-4.92555,4.92555H22.34136v-8.50777c0-.74163-.60171-1.34333-1.34333-1.34333H12.49026V14.53011c0-2.71633,2.20923-4.92555,4.92555-4.92555h21.49332c2.71633,0,4.92555,2.20923,4.92555,4.92555Zm-7.16444,21.49332c0-.74163-.60171-1.34333-1.34333-1.34333h-7.16444c-.74163,0-1.34333,.60171-1.34333,1.34333s.60171,1.34333,1.34333,1.34333h7.16444c.74163,0,1.34333-.60171,1.34333-1.34333Zm0-7.16444c0-.74163-.60171-1.34333-1.34333-1.34333h-14.32888c-.74163,0-1.34333,.60171-1.34333,1.34333s.60171,1.34333,1.34333,1.34333h14.32888c.74163,0,1.34333-.60171,1.34333-1.34333Zm0-7.16444c0-.74163-.60171-1.34333-1.34333-1.34333h-14.32888c-.74163,0-1.34333,.60171-1.34333,1.34333s.60171,1.34333,1.34333,1.34333h14.32888c.74163,0,1.34333-.60171,1.34333-1.34333Z"/></svg>