<?xml version="1.0" encoding="UTF-8"?><svg id="a" xmlns="http://www.w3.org/2000/svg" viewBox="0 0 217.39264 56.71594"><defs><style>.b{fill:#003778;}.c{fill:#0094ff;}.d{fill:#fff;}</style></defs><g><path class="c" d="M69.51276,22.10693h16.90576c1.83008,0,3.43457,.23291,4.81445,.69727,1.37939,.46484,2.52734,1.11865,3.44238,1.96045,.91504,.84326,1.60449,1.83789,2.06982,2.98486,.46436,1.14795,.69678,2.38965,.69678,3.72559,0,1.74268-.37012,3.19531-1.11084,4.35693-.74072,1.16211-1.75049,2.09131-3.02832,2.78809,1.74268,.66895,3.12207,1.64941,4.13916,2.94141,1.0166,1.29297,1.52539,2.94141,1.52539,4.94531,0,1.39453-.25488,2.67969-.7627,3.85645-.50879,1.17578-1.2417,2.19336-2.2002,3.0498-.95898,.85742-2.12109,1.51855-3.48584,1.98242-1.36572,.46484-2.90527,.69727-4.61865,.69727h-18.38721V22.10693Zm8.71436,7.93018v5.40283h7.18945c1.19043,0,2.02588-.24658,2.50537-.74072,.479-.49365,.71875-1.14746,.71875-1.96094,0-.8125-.22559-1.46631-.67529-1.96045-.45068-.49365-1.14062-.74072-2.06982-.74072h-7.66846Zm0,12.2002v5.96875h8.71436c1.19043,0,2.02588-.2832,2.50537-.84961,.479-.56641,.71875-1.2998,.71875-2.2002,0-.87109-.23975-1.5752-.71875-2.11328-.47949-.53711-1.31494-.80566-2.50537-.80566h-8.71436Z"/><path class="c" d="M134.78278,22.10693v19.12842c0,2.17773-.3418,4.21191-1.02393,6.09961-.68311,1.88867-1.68506,3.5293-3.00684,4.92383-1.32178,1.39355-2.95605,2.49121-4.90137,3.28906-1.94678,.79883-4.18311,1.19824-6.71045,1.19824-2.55615,0-4.80762-.39941-6.75342-1.19824-1.94629-.79785-3.57275-1.89551-4.87988-3.28906-1.30713-1.39453-2.29492-3.03516-2.96289-4.92383-.66846-1.8877-1.00244-3.92188-1.00244-6.09961V22.10693h8.71436v18.60498c0,2.46973,.58105,4.35742,1.74316,5.66406,1.16113,1.30762,2.87549,1.96094,5.14111,1.96094,2.29443,0,4.03076-.65332,5.20703-1.96094,1.17627-1.30664,1.76465-3.19434,1.76465-5.66406V22.10693h8.6709Z"/><path class="c" d="M149.55328,22.10693V56.09277h-8.71436V22.10693h8.71436Z"/><path class="c" d="M156.08844,22.10693h8.6709v25.57666h16.29541v8.40918h-24.96631V22.10693Z"/><path class="c" d="M185.54205,22.10693h15.77295c2.64307,0,4.97412,.45068,6.99316,1.35059,2.01855,.90088,3.69629,2.12842,5.03271,3.68213,1.33545,1.5542,2.34521,3.3623,3.02783,5.42432,.68262,2.06299,1.02393,4.2417,1.02393,6.53564,0,2.32422-.34131,4.51758-1.02393,6.5791-.68262,2.06348-1.69238,3.86426-3.02783,5.40332-1.33643,1.54004-3.01416,2.75977-5.03271,3.66016-2.01904,.90039-4.3501,1.35059-6.99316,1.35059h-15.77295V22.10693Zm8.71436,8.45312v17.12354h6.40479c1.30713,0,2.45459-.21094,3.44238-.63184,.9873-.4209,1.81494-1.00879,2.4834-1.76465,.66797-.75488,1.16895-1.65625,1.50342-2.70117,.3335-1.0459,.50098-2.20703,.50098-3.48633,0-2.55566-.66846-4.61816-2.00439-6.18701-1.33643-1.56836-3.31104-2.35254-5.92578-2.35254h-6.40479Z"/></g><g><path class="b" d="M74.70319,14.50928c-.96436,0-1.86426-.07129-2.69971-.21387-.83594-.14307-1.56934-.38721-2.20117-.73389-.63184-.34619-1.12793-.82861-1.4873-1.44678-.36035-.61816-.54004-1.396-.54004-2.3335v-.11182c0-.04736,.00635-.09863,.02002-.15283h4.25928c-.01367,.0542-.02051,.10547-.02051,.15283v.13232c0,.40771,.09521,.72021,.28516,.9375,.19043,.21729,.4585,.36377,.80518,.43799,.34619,.07471,.73682,.1123,1.17188,.1123,.16309,0,.33594-.00342,.51953-.01025s.35986-.02734,.52979-.06104,.32617-.08496,.46875-.15283,.25488-.15967,.33643-.27539c.08154-.11523,.12207-.26123,.12207-.43799,0-.25781-.11572-.46191-.34619-.61133-.23145-.14941-.54395-.27832-.9375-.38721-.39453-.1084-.83545-.21045-1.32471-.30566-.48926-.09473-.99854-.20703-1.52832-.33643-.52979-.12891-1.03955-.29541-1.52832-.49902-.48926-.2041-.93066-.46533-1.32471-.78467-.39404-.31885-.70654-.71973-.9375-1.20215s-.34619-1.06299-.34619-1.74268c0-.81494,.16943-1.50781,.50928-2.07861,.33936-.57031,.80518-1.03223,1.396-1.38574,.59082-.35303,1.26318-.61133,2.01758-.77441,.75391-.1626,1.54492-.24414,2.37402-.24414,.84229,0,1.6333,.08496,2.37402,.25439,.74023,.17041,1.396,.43164,1.96631,.78467,.5708,.35352,1.01904,.80176,1.34521,1.34521s.49561,1.18896,.50928,1.93555v.24463h-4.21826v-.08154c0-.24463-.06104-.4751-.18359-.69287-.12207-.2168-.31543-.39355-.58057-.52979-.26514-.13574-.61475-.20361-1.04932-.20361-.40771,0-.75098,.04053-1.0293,.12207-.27881,.08154-.48584,.19385-.62158,.33643s-.20361,.29541-.20361,.4585c0,.2583,.11523,.46875,.34619,.63184s.54346,.29883,.9375,.40723c.39404,.10889,.83545,.21094,1.32471,.30566,.48877,.09521,.99854,.20068,1.52832,.31592,.52979,.11572,1.03906,.26855,1.52832,.4585,.48926,.19043,.93018,.43848,1.32471,.74414,.39355,.30566,.70605,.68262,.9375,1.13086,.23047,.44824,.34619,.99854,.34619,1.65039,0,1.15527-.26855,2.09229-.80469,2.8125-.53711,.72021-1.27051,1.24658-2.20117,1.5791-.93066,.33301-1.98682,.49951-3.16895,.49951Z"/><path class="b" d="M84.74957,14.26465V.24414h8.27393c.88281,0,1.66064,.20068,2.33301,.60156,.67285,.40088,1.19921,.95459,1.57959,1.66064,.37988,.70654,.57031,1.52832,.57031,2.46582,0,.96484-.19336,1.80322-.58057,2.5166s-.91699,1.26709-1.58936,1.66113c-.67285,.39404-1.44385,.59082-2.31299,.59082h-3.77002v4.52393h-4.50391Zm4.50391-7.80469h2.26172c.47559,0,.83203-.12256,1.06982-.36719,.23779-.24414,.35693-.604,.35693-1.08008,0-.32568-.05127-.59375-.15283-.80469-.10205-.21045-.2583-.37012-.46875-.479-.21094-.1084-.479-.16309-.80518-.16309h-2.26172v2.89404Z"/><path class="b" d="M101.09235,14.26465V.24414h6.07275c1.60303,0,2.94824,.25195,4.03516,.75439,1.08643,.50244,1.91211,1.27051,2.47607,2.30273,.56348,1.03223,.8457,2.35059,.8457,3.95312,0,1.58984-.28223,2.90381-.8457,3.94336-.56396,1.03906-1.38965,1.81055-2.47607,2.31299-1.08691,.50244-2.43213,.75391-4.03516,.75391h-6.07275Zm4.50391-3.3623h1.4873c.48926,0,.91357-.06787,1.27393-.2041,.35986-.13525,.65527-.33252,.88623-.59082,.23096-.25781,.40088-.57715,.50977-.95752,.1084-.38037,.16309-.80811,.16309-1.28418v-1.22266c0-.4751-.05469-.90332-.16309-1.28369-.10889-.38037-.27881-.69971-.50977-.95801-.23096-.25781-.52637-.45508-.88623-.59082-.36035-.13574-.78467-.20361-1.27393-.20361h-1.4873v7.29541Z"/><path class="b" d="M116.53961,14.26465l5.01318-7.41748L117.02887,.24414h5.44092l2.11914,3.58691h.08154l2.13965-3.58691h5.03369l-4.54443,6.62305,5.01318,7.39746h-5.46143l-2.58838-4.36084h-.08105l-2.58838,4.36084h-5.05371Z"/></g><polygon class="b" points="56.64301 .58929 56.64301 .07294 0 .07294 0 56.71594 .5163 56.71594 56.64301 .58929"/><polygon class="c" points=".065 56.19958 .065 56.71594 56.70801 56.71594 56.70801 .07294 56.19171 .07294 .065 56.19958"/><g><path class="d" d="M27.63137,39.98556H13.21756c-.3035,0-.56897,.26547-.56897,.56897v5.84139c0,.3035,.26547,.56897,.56897,.56897h14.41381c.3035,0,.56897-.26547,.56897-.56897v-5.84139c-.03791-.30338-.26559-.56897-.56897-.56897Z"/><path class="d" d="M45.19346,39.98556h-14.41381c-.3035,0-.56897,.26547-.56897,.56897v5.84139c0,.3035,.26547,.56897,.56897,.56897h14.41381c.3035,0,.56897-.26547,.56897-.56897v-5.84139c0-.30338-.26547-.56897-.56897-.56897Z"/><path class="d" d="M45.19346,21.9683h-14.41381c-.3035,0-.56897,.26547-.56897,.56897v5.87932c0,.3035,.26547,.56897,.56897,.56897h14.41381c.3035,0,.56897-.26547,.56897-.56897v-5.87932c0-.34141-.26547-.56897-.56897-.56897Z"/><path class="d" d="M13.1797,37.93728h5.46208c.3035,0,.56897-.26547,.56897-.56897l-.00012-5.84139c0-.3035-.26547-.56897-.56897-.56897h-5.46207c-.3035,0-.56897,.26547-.56897,.56897v5.87932c0,.30338,.26547,.53094,.56897,.53094l.00012,.00009Z"/><path class="d" d="M21.78999,37.93728h14.83105c.3035,0,.56897-.26547,.56897-.56897v-5.84139c0-.3035-.26547-.56897-.56897-.56897h-14.83105c-.3035,0-.56897,.26547-.56897,.56897v5.87932c0,.30338,.26547,.53094,.56897,.53094v.00009Z"/><path class="d" d="M45.19346,30.95796h-5.46207c-.3035,0-.56897,.26547-.56897,.56897v5.87932c0,.3035,.26547,.56897,.56897,.56897h5.46207c.3035,0,.56897-.26547,.56897-.56897l-.00012-5.87932c0-.3035-.26547-.56897-.56897-.56897h.00012Z"/><path class="d" d="M19.40033,19.92002v5.76552l-.79652-.79652c-.3035-.3035-.79652-.3035-1.13793,0-.3035,.3035-.3035,.79652,0,1.13793l2.12411,2.12411c.15175,.15175,.34141,.22756,.56897,.22756,.18966,0,.41721-.07581,.56897-.22756l2.12411-2.12411c.3035-.3035,.3035-.79652,0-1.13793-.3035-.3035-.79652-.3035-1.13793,0l-.79652,.79652v-5.76552h-1.51724Z"/><path class="d" d="M13.1797,17.90967h14.41381c.3035,0,.56897-.26547,.56897-.56897v-7.85173c0-.3035-.26547,1.44138-.56897,1.44138H13.1797c-.3035,0-.56897,.26547-.56897,.56897v5.87932c0,.26547,.26547,.53107,.56897,.53107v-.00003Z"/></g></svg>