<?xml version="1.0" encoding="UTF-8"?><svg id="a" xmlns="http://www.w3.org/2000/svg" viewBox="0 0 261.70087 68"><defs><style>.b{fill:none;}.c{fill:#231f20;}.d{fill:#58595b;}</style></defs><path d="M246.72067,22.38971c0-.72355,.13738-1.40725,.41255-2.05152,.27475-.64363,.65126-1.20479,1.12911-1.68243,.47742-.47742,1.03795-.85372,1.68243-1.12868,.64363-.27475,1.32754-.41255,2.05131-.41255,.72334,0,1.40725,.1378,2.05131,.41255,.64405,.27496,1.205,.65126,1.68243,1.12868,.47785,.47763,.85393,1.0388,1.12911,1.68243,.27475,.64427,.41255,1.32796,.41255,2.05152,0,.72398-.1378,1.40768-.41255,2.05152-.27518,.64405-.65126,1.20479-1.12911,1.68243-.47742,.47763-1.03837,.85415-1.68243,1.1289-.64405,.27496-1.32796,.41234-2.05131,.41234-.72377,0-1.40768-.13738-2.05131-.41234-.64448-.27475-1.205-.65126-1.68243-1.1289-.47785-.47763-.85436-1.03837-1.12911-1.68243-.27518-.64384-.41255-1.32754-.41255-2.05152Zm1.36782,0c0,.55014,.10091,1.06042,.30401,1.53042,.20225,.47064,.48081,.88298,.8357,1.23744,.35446,.35489,.76701,.63324,1.23723,.83591s.98028,.30379,1.53063,.30379c.53509,0,1.04219-.10112,1.51961-.30379s.89337-.48103,1.24825-.83591c.35446-.35446,.63303-.7668,.8357-1.23744,.20267-.47,.30401-.98028,.30401-1.53042,0-.5353-.10134-1.04198-.30401-1.51961s-.48124-.89337-.8357-1.24825c-.35489-.35446-.77083-.63282-1.24825-.8357-.47742-.20246-.98452-.30401-1.51961-.30401-.55035,0-1.06042,.10155-1.53063,.30401-.47021,.20288-.88277,.48124-1.23723,.8357-.35489,.35489-.63345,.77062-.8357,1.24825-.2031,.47763-.30401,.98431-.30401,1.51961Zm4.90609,2.43142l-.82468-1.45453h-.86835v1.45453h-1.19398v-5.10155h2.1925c.60759,0,1.07441,.18105,1.40004,.54272,.32563,.36188,.48845,.78143,.48845,1.25906,0,.33305-.0759,.64427-.22769,.93343-.15222,.2898-.37312,.51389-.66229,.6731l.99852,1.69324h-1.30252Zm-1.69303-3.95103v1.34598h.93322c.24592,0,.43036-.0759,.55374-.2279,.12254-.152,.18444-.3074,.18444-.46682,0-.17363-.0619-.32563-.18444-.4558-.12338-.13038-.30782-.19546-.55374-.19546h-.93322Z"/><g><g><path class="c" d="M89.2486,43.77229v.24401c0,1.46487,2.00174,3.46641,6.4448,3.46641,3.66178,0,4.8334-1.22046,4.8334-2.34324,0-1.6112-1.90406-2.58765-6.49344-4.1502-6.05426-2.00174-14.01237-4.93108-14.01237-12.79171,0-7.27472,6.20059-11.81526,14.89114-11.81526,8.88592,0,15.57473,4.73572,15.57473,12.30349v.53707h-9.52067v-.3417c0-1.85541-1.90406-4.05252-5.85869-4.05252-3.32008,0-4.63823,1.31834-4.63823,2.58765,0,1.51351,1.75753,2.29479,6.29827,3.85715,5.27278,1.85521,14.25638,4.97993,14.25638,13.32897,0,7.42124-6.4446,11.32704-15.13535,11.32704-9.12993,0-16.16064-4.24788-16.16064-11.71778v-.43938h9.52067Z"/><path class="c" d="M122.69364,17.11453h16.79539c10.10658,0,14.94017,6.93302,14.94017,14.59828,0,8.056-4.8336,14.84249-14.94017,14.84249h-7.03051v8.64171h-9.76488V17.11453Zm9.76488,8.88592v11.66893h6.49344c4.10116,0,5.61468-2.53881,5.61468-5.90773,0-3.02703-1.51351-5.7612-5.61468-5.7612h-6.49344Z"/><path class="c" d="M165.513,17.11453h17.67415c11.91314,0,18.01585,8.69055,18.01585,19.04134,0,10.39943-6.10271,19.04114-18.01585,19.04114h-17.67415V17.11453Zm9.76488,9.47183v19.18786h7.17684c5.81005,0,8.88611-3.90599,8.88611-9.61835s-3.07607-9.56951-8.88611-9.56951h-7.17684Z"/><path class="c" d="M244.70695,17.11453l-12.79191,18.94365,13.08496,19.13882h-11.86411l-7.07955-10.44827-7.03051,10.44827h-11.86411l13.08457-19.13882-12.79191-18.94365h11.52241l7.07955,10.39943,7.12819-10.39943h11.52241Z"/></g><g><polygon class="b" points="17.85507 50.54782 48.91824 19.54938 17.85507 19.54938 17.85507 50.54782"/><polygon points="17.85507 19.54938 48.91824 19.54938 61.69085 6.69431 5 6.69431 5 6.90704 5 19.4015 5 63.32131 17.85507 50.54782 17.85507 19.54938"/><g><polygon class="d" points="48.91824 19.54938 17.85507 50.54782 5 63.33696 17.85507 63.33696 23.72617 63.33696 35.12907 51.75188 35.12907 40.11715 35.12907 36.82338 38.48666 36.82338 50.11853 36.82338 61.64265 25.34937 61.64265 19.54938 61.64265 6.62845 48.91824 19.54938"/><polygon class="d" points="38.34284 40.03715 38.34284 48.558 38.34284 63.33696 61.64265 63.33696 61.64265 40.03715 46.92589 40.03715 38.34284 40.03715"/></g></g></g></svg>