<?xml version="1.0" encoding="UTF-8"?><svg id="a" xmlns="http://www.w3.org/2000/svg" viewBox="0 0 250 68"><defs><style>.b{fill:#fff;}.c{opacity:.8;}</style></defs><g><path class="b" d="M89.2486,45.29303v.24401c0,1.46487,2.00174,3.46641,6.4448,3.46641,3.66178,0,4.8334-1.22046,4.8334-2.34324,0-1.6112-1.90406-2.58765-6.49344-4.1502-6.05426-2.00174-14.01237-4.93108-14.01237-12.79171,0-7.27472,6.20059-11.81526,14.89114-11.81526,8.88592,0,15.57473,4.73572,15.57473,12.30349v.53707h-9.52067v-.3417c0-1.85541-1.90406-4.05252-5.85869-4.05252-3.32008,0-4.63823,1.31834-4.63823,2.58765,0,1.51351,1.75753,2.29479,6.29827,3.85715,5.27278,1.85521,14.25638,4.97993,14.25638,13.32897,0,7.42124-6.4446,11.32704-15.13535,11.32704-9.12993,0-16.16064-4.24788-16.16064-11.71778v-.43938h9.52067Z"/><path class="b" d="M122.69364,18.63527h16.79539c10.10658,0,14.94017,6.93302,14.94017,14.59828,0,8.056-4.8336,14.84249-14.94017,14.84249h-7.03051v8.64171h-9.76488V18.63527Zm9.76488,8.88592v11.66893h6.49344c4.10116,0,5.61468-2.53881,5.61468-5.90773,0-3.02703-1.51351-5.7612-5.61468-5.7612h-6.49344Z"/><path class="b" d="M165.513,18.63527h17.67415c11.91314,0,18.01585,8.69055,18.01585,19.04134,0,10.39943-6.10271,19.04114-18.01585,19.04114h-17.67415V18.63527Zm9.76488,9.47183v19.18786h7.17684c5.81005,0,8.88611-3.90599,8.88611-9.61835s-3.07607-9.56951-8.88611-9.56951h-7.17684Z"/><path class="b" d="M244.70695,18.63527l-12.79191,18.94365,13.08496,19.13882h-11.86411l-7.07955-10.44827-7.03051,10.44827h-11.86411l13.08457-19.13882-12.79191-18.94365h11.52241l7.07955,10.39943,7.12819-10.39943h11.52241Z"/></g><g><polygon class="b" points="17.85507 21.07012 48.91824 21.07012 61.69085 8.21505 5 8.21505 5 8.42778 5 20.92224 5 64.84205 17.85507 52.06856 17.85507 21.07012"/><g class="c"><polygon class="b" points="48.91824 21.07012 17.85507 52.06856 5 64.8577 17.85507 64.8577 23.72617 64.8577 35.12907 53.27262 35.12907 41.63789 35.12907 38.34412 38.48666 38.34412 50.11853 38.34412 61.64265 26.87011 61.64265 21.07012 61.64265 8.14919 48.91824 21.07012"/><polygon class="b" points="38.34284 41.55788 38.34284 50.07874 38.34284 64.8577 61.64265 64.8577 61.64265 41.55788 46.92589 41.55788 38.34284 41.55788"/></g></g></svg>