<?xml version="1.0" encoding="UTF-8"?><svg id="a" xmlns="http://www.w3.org/2000/svg" xmlns:xlink="http://www.w3.org/1999/xlink" viewBox="0 0 261.70087 68"><defs><style>.d{fill:none;}.e{fill:#003778;}.f{fill:#0094ff;}.g{fill:url(#c);isolation:isolate;opacity:.8;}</style><linearGradient id="c" x1="11.3884" y1="63.62823" x2="36.97218" y2="30.91986" gradientTransform="translate(0 70) scale(1 -1)" gradientUnits="userSpaceOnUse"><stop offset="0" stop-color="#fff" stop-opacity="0"/><stop offset=".34941" stop-color="#cdcccc" stop-opacity=".22668"/><stop offset=".889" stop-color="#454142" stop-opacity=".84698"/><stop offset="1" stop-color="#231f20"/></linearGradient></defs><g id="b"><path class="e" d="M89.2486,43.20761v.244c0,1.46486,2.00174,3.46641,6.4448,3.46641,3.66178,0,4.8334-1.22046,4.8334-2.34324,0-1.6112-1.904-2.58765-6.49344-4.1502-6.05425-2.00172-14.01235-4.93107-14.01235-12.7917,0-7.27471,6.20058-11.81526,14.89113-11.81526,8.88592,0,15.57473,4.73572,15.57473,12.30349v.53706h-9.52067v-.34169c0-1.85541-1.904-4.05252-5.85869-4.05252-3.32008,0-4.63823,1.31834-4.63823,2.58765,0,1.51351,1.75753,2.29479,6.29827,3.85715,5.27279,1.85521,14.25639,4.97992,14.25639,13.329,0,7.42125-6.4446,11.327-15.13535,11.327-9.12993,0-16.16063-4.24789-16.16063-11.71778v-.43938l9.52064,.00002Z"/><path class="e" d="M122.69364,16.54986h16.79536c10.10658,0,14.94019,6.933,14.94019,14.59828,0,8.056-4.8336,14.84249-14.94019,14.84249h-7.0305v8.6417h-9.76487l.00002-38.08247Zm9.76487,8.88592v11.66893h6.49348c4.10117,0,5.61467-2.53881,5.61467-5.90773,0-3.027-1.5135-5.7612-5.61467-5.7612h-6.49348Z"/><path class="e" d="M165.513,16.54986h17.67416c11.91315,0,18.01585,8.69055,18.01585,19.04134,0,10.39943-6.10271,19.04113-18.01585,19.04113h-17.67416V16.54986Zm9.76488,9.47183v19.18786h7.17683c5.81,0,8.88612-3.906,8.88612-9.61835s-3.07607-9.56951-8.88612-9.56951h-7.17683Z"/><path class="e" d="M244.707,16.54986l-12.79201,18.94365,13.08501,19.13882h-11.86411l-7.07954-10.44827-7.0305,10.44827h-11.86412l13.08458-19.13882-12.79192-18.94365h11.52242l7.07954,10.39943,7.12819-10.39943h11.52246Z"/><polygon class="d" points="17.855 49.983 48.918 18.985 17.855 18.985 17.855 49.983"/><polygon class="e" points="17.855 18.985 48.918 18.985 61.691 6.13 5 6.13 5 6.342 5 18.837 5 62.757 17.855 49.983 17.855 18.985"/><polygon class="g" points="17.855 18.985 48.918 18.985 61.691 6.13 5 6.13 5 6.342 5 18.837 5 62.757 17.855 49.983 17.855 18.985"/><polygon class="f" points="48.918 18.985 17.855 49.983 5 62.772 17.855 62.772 23.726 62.772 35.129 51.187 35.129 39.552 35.129 36.259 38.487 36.259 50.119 36.259 61.643 24.785 61.643 18.985 61.643 6.064 48.918 18.985"/><polygon class="f" points="38.343 39.472 38.343 47.993 38.343 62.772 61.643 62.772 61.643 39.472 46.926 39.472 38.343 39.472"/></g><path class="e" d="M246.72067,21.81885c0-.72355,.13738-1.40725,.41255-2.05152,.27475-.64363,.65126-1.20479,1.12911-1.68243,.47742-.47742,1.03795-.85372,1.68243-1.12868,.64363-.27475,1.32754-.41255,2.05131-.41255,.72334,0,1.40725,.1378,2.05131,.41255,.64405,.27496,1.205,.65126,1.68243,1.12868,.47785,.47763,.85393,1.0388,1.12911,1.68243,.27475,.64427,.41255,1.32796,.41255,2.05152,0,.72398-.1378,1.40768-.41255,2.05152-.27518,.64405-.65126,1.20479-1.12911,1.68243-.47742,.47763-1.03837,.85415-1.68243,1.1289-.64405,.27496-1.32796,.41234-2.05131,.41234-.72377,0-1.40768-.13738-2.05131-.41234-.64448-.27475-1.205-.65126-1.68243-1.1289-.47785-.47763-.85436-1.03837-1.12911-1.68243-.27518-.64384-.41255-1.32754-.41255-2.05152Zm1.36782,0c0,.55014,.10091,1.06042,.30401,1.53042,.20225,.47064,.48081,.88298,.8357,1.23744,.35446,.35489,.76701,.63324,1.23723,.83591s.98028,.30379,1.53063,.30379c.53509,0,1.04219-.10112,1.51961-.30379s.89337-.48103,1.24825-.83591c.35446-.35446,.63303-.7668,.8357-1.23744,.20267-.47,.30401-.98028,.30401-1.53042,0-.5353-.10134-1.04198-.30401-1.51961s-.48124-.89337-.8357-1.24825c-.35489-.35446-.77083-.63282-1.24825-.8357-.47742-.20246-.98452-.30401-1.51961-.30401-.55035,0-1.06042,.10155-1.53063,.30401-.47021,.20288-.88277,.48124-1.23723,.8357-.35489,.35489-.63345,.77062-.8357,1.24825-.2031,.47763-.30401,.98431-.30401,1.51961Zm4.90609,2.43142l-.82468-1.45453h-.86835v1.45453h-1.19398v-5.10155h2.1925c.60759,0,1.07441,.18105,1.40004,.54272,.32563,.36188,.48845,.78143,.48845,1.25906,0,.33305-.0759,.64427-.22769,.93343-.15222,.2898-.37312,.51389-.66229,.6731l.99852,1.69324h-1.30252Zm-1.69303-3.95103v1.34598h.93322c.24592,0,.43036-.0759,.55374-.2279,.12254-.152,.18444-.3074,.18444-.46682,0-.17363-.0619-.32563-.18444-.4558-.12338-.13038-.30782-.19546-.55374-.19546h-.93322Z"/></svg>